if (_typeface_js && _typeface_js.loadFace) _typeface_js.loadFace({"glyphs":{"0":{"ha":694,"x_min":69,"x_max":625,"o":"m 536 756 q 601 614 576 701 q 625 418 625 526 q 601 227 625 308 q 537 92 576 146 q 447 11 497 38 q 346 -15 397 -15 q 243 17 293 -15 q 154 106 193 49 q 92 245 115 164 q 69 425 69 326 q 92 606 69 524 q 154 747 115 688 q 243 838 193 806 q 346 871 293 871 q 536 756 454 871 m 485 674 q 421 758 457 729 q 347 786 385 786 q 278 761 313 786 q 218 692 244 736 q 176 583 192 647 q 160 443 160 519 q 179 279 160 357 l 485 674 m 517 581 l 211 192 q 281 101 244 129 q 354 74 318 74 q 424 97 392 74 q 481 163 457 119 q 520 267 506 206 q 535 407 535 329 q 531 499 535 456 q 517 581 526 542 z "},"1":{"ha":694,"x_min":122,"x_max":415,"o":"m 415 867 l 415 0 l 319 0 l 319 746 l 144 694 l 122 749 l 349 867 l 415 867 z "},"2":{"ha":694,"x_min":101,"x_max":610,"o":"m 108 731 q 210 834 146 797 q 350 871 275 871 q 447 852 401 871 q 528 800 493 833 q 582 722 563 767 q 601 628 601 678 q 590 551 601 588 q 558 483 578 515 q 513 420 539 450 q 460 365 488 390 l 376 288 q 336 248 358 271 q 292 199 314 225 q 250 143 271 172 q 214 85 229 114 l 576 85 q 591 91 583 85 q 606 97 599 97 l 610 97 l 610 0 l 101 0 l 101 61 q 213 236 153 163 q 328 360 272 310 l 394 421 q 451 480 429 453 q 485 532 472 507 q 501 580 497 557 q 506 626 506 603 q 493 685 506 657 q 458 737 481 714 q 406 773 435 760 q 347 786 378 786 q 283 776 311 786 q 233 751 254 765 q 199 720 211 736 q 185 692 186 704 q 179 675 182 679 l 108 731 z "},"3":{"ha":694,"x_min":96,"x_max":590,"o":"m 571 649 q 535 535 571 586 q 442 461 500 483 q 549 376 508 438 q 590 238 590 315 q 572 140 590 186 q 517 60 553 94 q 431 5 482 25 q 314 -15 379 -15 q 96 83 186 -15 l 169 171 q 178 152 175 165 q 188 131 181 139 l 207 113 q 252 88 218 101 q 322 74 286 74 q 392 88 360 74 q 447 126 424 101 q 484 183 471 150 q 497 251 497 215 q 441 370 497 326 q 293 414 385 414 q 272 413 282 414 q 250 411 261 413 l 250 489 q 357 502 314 489 q 427 538 400 515 q 466 590 454 560 q 478 654 478 619 q 467 702 478 679 q 436 742 456 725 q 389 771 417 760 q 328 782 361 782 q 179 715 239 782 l 125 775 q 332 868 210 868 q 426 851 382 868 q 501 803 469 833 q 552 733 533 772 q 571 649 571 693 z "},"4":{"ha":694,"x_min":67,"x_max":628,"o":"m 435 867 l 517 867 l 517 325 l 628 325 l 628 239 l 517 239 l 517 0 l 415 0 l 415 240 l 67 240 l 67 311 l 435 867 m 417 713 l 163 325 l 417 325 l 417 713 z "},"5":{"ha":694,"x_min":89,"x_max":618,"o":"m 147 865 l 586 865 l 586 778 l 229 778 l 215 529 q 357 563 283 563 q 460 542 413 563 q 544 484 508 522 q 599 392 579 446 q 618 272 618 339 q 597 152 618 206 q 540 61 576 99 q 453 4 503 24 q 346 -15 404 -15 q 199 19 267 -15 q 89 118 132 54 l 175 182 q 183 165 182 178 q 185 150 183 153 q 204 126 190 140 q 240 100 218 113 q 290 78 261 88 q 351 69 318 69 q 415 84 385 69 q 469 125 446 99 q 506 190 492 151 q 519 276 519 228 q 506 363 519 325 q 467 428 492 401 q 411 468 443 454 q 342 482 379 482 q 254 460 297 482 q 179 400 211 439 l 118 425 l 147 865 z "},"6":{"ha":694,"x_min":93,"x_max":610,"o":"m 399 875 q 589 796 507 875 l 521 722 q 504 747 508 733 q 485 765 500 760 q 442 784 464 779 q 401 789 421 789 q 337 776 374 789 q 268 726 300 763 q 213 624 236 690 q 189 454 190 558 q 267 531 218 503 q 372 558 317 558 q 464 538 421 558 q 540 481 507 518 q 591 391 572 443 q 610 275 610 339 q 590 158 610 211 q 538 66 571 104 q 459 7 504 28 q 363 -14 414 -14 q 247 15 297 -14 q 163 96 197 43 q 111 224 129 149 q 93 394 93 300 q 115 601 93 511 q 176 751 136 690 q 273 844 217 813 q 399 875 329 875 m 194 357 q 193 340 193 349 q 193 324 193 332 q 206 224 193 269 q 243 144 219 178 q 299 92 267 111 q 367 72 331 72 q 471 124 426 72 q 515 274 515 175 q 501 364 515 326 q 466 426 488 401 q 417 462 444 450 q 364 474 390 474 q 268 440 314 474 q 194 357 222 406 z "},"7":{"ha":694,"x_min":110,"x_max":600,"o":"m 600 811 q 437 410 513 611 q 297 0 361 208 l 188 0 q 326 390 254 199 q 479 774 399 582 l 110 774 l 110 865 l 600 865 l 600 811 z "},"8":{"ha":694,"x_min":83,"x_max":613,"o":"m 583 671 q 546 552 583 608 q 446 463 508 496 q 567 363 521 428 q 613 224 613 299 q 592 130 613 174 q 535 54 571 86 q 451 4 500 22 q 347 -14 403 -14 q 243 4 292 -14 q 159 53 194 22 q 103 127 124 85 q 83 218 83 169 q 131 358 83 293 q 257 460 178 424 q 161 545 197 490 q 125 663 125 600 q 143 746 125 707 q 193 814 161 785 q 267 860 225 843 q 357 876 308 876 q 447 860 406 876 q 519 816 489 844 q 566 750 549 788 q 583 671 583 713 m 329 421 q 225 342 267 394 q 183 228 183 290 q 197 168 183 196 q 233 119 210 140 q 285 86 256 99 q 350 74 315 74 q 415 85 385 74 q 467 117 444 97 q 501 165 489 138 q 514 224 514 192 q 464 341 514 288 q 329 421 414 394 m 242 596 q 285 548 258 568 q 347 510 313 528 l 371 497 q 456 572 422 525 q 489 668 489 619 q 478 715 489 693 q 449 756 468 738 q 406 784 431 774 q 351 794 381 794 q 298 784 322 794 q 256 757 274 774 q 228 718 238 740 q 218 672 218 696 q 242 596 218 631 z "},"9":{"ha":694,"x_min":94,"x_max":607,"o":"m 301 -14 q 110 65 190 -14 l 178 139 q 190 122 185 135 q 200 106 194 110 q 299 74 240 74 q 454 152 403 74 q 511 407 506 231 q 433 339 481 364 q 332 314 386 314 q 240 334 283 314 q 165 390 197 354 q 113 477 132 426 q 94 589 94 528 q 114 702 94 650 q 167 792 133 754 q 247 852 201 831 q 343 874 292 874 q 538 765 469 874 q 607 415 607 656 q 583 225 607 306 q 517 92 558 144 q 419 14 475 40 q 301 -14 364 -12 m 506 504 q 507 526 507 515 q 507 547 507 536 q 494 646 507 601 q 458 722 481 690 q 407 770 436 753 q 347 788 378 788 q 233 735 276 788 q 189 590 189 682 q 201 510 189 546 q 234 450 214 475 q 280 412 254 425 q 333 399 306 399 q 433 427 389 399 q 506 504 476 456 z "}," ":{"ha":694,"x_min":0,"x_max":0,"o":""},"!":{"ha":694,"x_min":250,"x_max":415,"o":"m 390 124 q 415 65 415 99 q 390 9 415 33 q 332 -15 365 -15 q 274 8 299 -15 q 250 65 250 32 q 274 124 250 99 q 332 149 299 149 q 390 124 365 149 m 335 928 q 386 901 367 928 q 406 811 406 874 q 404 774 406 796 q 400 725 403 753 l 393 653 l 368 269 l 299 269 l 278 653 q 274 699 276 675 q 270 747 272 724 q 266 790 268 769 q 264 825 264 811 q 283 901 264 874 q 335 928 301 928 z "},"\"":{"ha":694,"x_min":154,"x_max":551,"o":"m 438 761 l 429 849 q 447 906 429 888 q 489 925 465 925 q 532 904 513 925 q 551 838 551 883 q 504 664 551 794 l 471 572 l 394 590 l 425 685 q 438 761 438 726 m 199 761 l 189 849 q 207 906 189 888 q 249 925 225 925 q 292 904 272 925 q 311 838 311 883 q 265 664 311 790 l 232 572 l 154 590 l 185 685 q 195 724 192 706 q 199 761 199 743 z "},"#":{"ha":694,"x_min":35,"x_max":661,"o":"m 240 867 l 325 869 l 296 632 l 449 632 l 476 864 l 563 865 l 535 635 l 661 635 l 653 569 l 526 569 l 497 335 l 635 335 l 628 272 l 490 272 l 460 19 l 375 14 l 406 268 l 251 268 l 222 19 l 140 18 l 169 265 l 35 265 l 40 328 l 178 328 l 206 565 l 54 565 l 58 629 l 213 629 l 240 867 m 288 567 l 260 331 l 413 331 l 442 567 l 288 567 z "},"$":{"ha":694,"x_min":83,"x_max":639,"o":"m 326 904 l 415 904 q 417 900 417 903 q 413 891 417 897 q 407 875 408 885 l 407 822 q 614 715 538 807 l 554 640 q 547 653 547 643 q 539 669 546 663 q 407 740 490 726 l 407 472 q 510 432 467 453 q 583 385 554 411 q 625 327 611 360 q 639 251 639 294 q 623 174 639 211 q 577 105 607 136 q 504 51 547 74 q 407 22 461 29 l 407 -65 l 326 -65 l 326 19 q 83 131 176 31 l 143 214 q 149 200 149 210 q 153 185 149 190 q 326 100 222 110 l 326 406 q 164 492 218 442 q 110 619 110 543 q 126 691 110 657 q 170 751 142 725 q 238 796 199 778 q 326 821 278 814 l 326 904 m 407 379 l 407 103 q 511 156 474 115 q 549 246 549 197 q 515 326 549 296 q 407 379 482 356 m 326 501 l 326 742 q 233 703 264 735 q 201 631 201 671 q 326 501 201 551 z "},"%":{"ha":694,"x_min":39,"x_max":669,"o":"m 543 865 l 636 865 l 153 0 l 64 0 l 543 865 m 39 700 q 51 771 39 738 q 85 828 64 804 q 134 867 106 853 q 194 881 163 881 q 255 867 226 881 q 304 828 283 853 q 338 769 325 803 q 350 699 350 736 q 306 569 350 619 q 194 518 261 518 q 134 532 163 518 q 85 570 106 546 q 51 628 64 594 q 39 700 39 661 m 263 700 q 240 784 263 760 q 192 808 218 808 q 145 784 167 808 q 124 700 124 760 q 146 617 124 642 q 194 592 168 592 q 242 616 221 592 q 263 700 263 640 m 515 346 q 576 332 547 346 q 625 293 604 318 q 658 235 646 268 q 669 165 669 203 q 657 94 669 128 q 624 38 644 61 q 575 0 603 14 q 515 -14 547 -14 q 455 0 483 -14 q 406 38 426 14 q 372 94 385 61 q 360 165 360 128 q 372 236 360 203 q 406 294 385 269 q 455 332 426 318 q 515 346 483 346 m 564 249 q 514 275 540 275 q 464 250 486 275 q 442 167 442 225 q 465 81 442 107 q 517 56 489 56 q 566 82 544 56 q 588 164 588 108 q 564 249 588 221 z "},"&":{"ha":694,"x_min":50,"x_max":668,"o":"m 574 364 l 572 381 q 578 394 572 389 l 668 332 q 563 171 621 249 l 660 44 l 578 -17 l 501 106 q 397 19 458 51 q 267 -14 335 -14 q 180 3 219 -14 q 111 48 140 19 q 66 115 82 76 q 50 196 50 153 q 98 358 50 283 q 225 476 146 432 q 126 692 126 596 q 142 764 126 731 q 183 822 157 797 q 243 860 208 846 q 317 874 278 874 q 393 858 358 874 q 453 817 428 843 q 491 759 478 792 q 504 692 504 726 q 493 622 504 657 q 462 556 482 588 q 415 499 442 525 q 354 458 388 474 l 510 240 q 549 299 529 264 q 574 364 569 333 m 222 690 q 307 518 222 624 q 385 590 357 542 q 413 683 413 638 q 384 760 413 729 q 318 792 356 792 q 251 764 279 792 q 222 690 222 736 m 274 411 q 187 321 218 376 q 156 211 156 265 q 165 158 156 182 q 192 115 175 133 q 230 85 208 96 q 276 75 251 75 q 322 82 299 75 q 366 99 346 89 q 403 123 386 110 q 429 147 419 136 l 450 171 l 274 411 z "},"'":{"ha":694,"x_min":286,"x_max":443,"o":"m 331 761 l 321 849 q 339 906 321 888 q 381 925 357 925 q 424 904 404 925 q 443 838 443 883 q 431 771 442 814 q 397 664 421 728 l 363 572 l 286 590 l 317 685 q 327 724 324 706 q 331 761 331 743 z "},"(":{"ha":694,"x_min":193,"x_max":590,"o":"m 575 838 l 560 839 q 547 835 556 839 q 357 638 425 763 q 289 356 289 514 q 310 202 289 278 q 369 58 331 126 q 465 -69 408 -11 q 590 -167 521 -126 l 546 -240 q 397 -134 463 -197 q 287 7 332 -71 q 217 174 242 85 q 193 358 193 264 q 217 540 193 453 q 288 701 242 626 q 398 832 333 775 q 544 925 463 889 l 586 840 q 575 838 578 838 z "},")":{"ha":694,"x_min":100,"x_max":506,"o":"m 108 838 l 135 924 q 288 824 218 885 q 405 688 357 764 q 479 526 453 613 q 506 347 506 439 q 478 166 506 254 q 402 1 451 78 q 283 -139 353 -76 q 126 -242 213 -201 l 100 -158 q 227 -67 171 -121 q 324 52 283 -14 q 385 192 364 118 q 407 343 407 265 q 385 494 407 421 q 325 632 364 568 q 231 749 286 696 q 108 838 175 801 z "},"*":{"ha":694,"x_min":57,"x_max":636,"o":"m 296 721 l 408 721 q 404 702 407 713 q 400 683 401 692 l 379 475 l 600 575 l 636 490 l 399 418 l 574 208 l 497 149 l 347 379 l 192 147 l 117 208 l 297 417 l 57 490 l 93 581 l 318 475 l 296 721 z "},"+":{"ha":694,"x_min":63,"x_max":633,"o":"m 308 726 l 396 726 l 396 489 l 633 489 l 633 404 l 396 404 l 396 144 l 308 144 l 308 404 l 63 404 l 63 489 l 308 489 l 308 726 z "},",":{"ha":694,"x_min":229,"x_max":425,"o":"m 425 28 q 276 -233 425 -82 l 229 -192 q 294 -114 268 -156 q 319 -46 319 -72 q 308 -20 319 -32 q 284 3 297 -8 q 260 28 271 14 q 249 61 249 43 q 272 119 249 96 q 331 143 294 143 q 396 111 367 143 q 425 28 425 79 z "},"-":{"ha":694,"x_min":99,"x_max":599,"o":"m 99 483 l 599 483 l 599 390 l 99 390 l 99 483 z "},".":{"ha":694,"x_min":249,"x_max":414,"o":"m 389 121 q 414 64 414 96 q 390 8 414 32 q 331 -15 365 -15 q 272 8 296 -15 q 249 64 249 31 q 274 121 249 97 q 331 144 299 144 q 389 121 363 144 z "},"/":{"ha":694,"x_min":89,"x_max":607,"o":"m 89 -18 l 524 924 l 607 881 l 171 -58 l 89 -18 z "},":":{"ha":694,"x_min":249,"x_max":414,"o":"m 389 564 q 414 507 414 539 q 389 451 414 475 q 331 428 364 428 q 274 451 299 428 q 249 507 249 475 q 274 564 249 540 q 331 588 299 588 q 389 564 363 588 m 389 121 q 414 64 414 96 q 390 8 414 32 q 331 -15 365 -15 q 272 8 296 -15 q 249 64 249 31 q 274 121 249 97 q 331 144 299 144 q 389 121 363 144 z "},";":{"ha":694,"x_min":229,"x_max":425,"o":"m 425 28 q 276 -233 425 -82 l 229 -192 q 294 -114 268 -156 q 319 -46 319 -72 q 308 -20 319 -32 q 284 3 297 -8 q 260 28 271 14 q 249 61 249 43 q 272 119 249 96 q 331 143 294 143 q 396 111 367 143 q 425 28 425 79 m 389 564 q 414 507 414 539 q 389 451 414 475 q 331 428 364 428 q 274 451 299 428 q 249 507 249 475 q 274 564 249 540 q 331 588 299 588 q 389 564 363 588 z "},"<":{"ha":694,"x_min":49,"x_max":640,"o":"m 636 689 l 154 443 l 640 171 l 640 65 l 49 411 l 49 478 l 636 788 l 636 689 z "},"=":{"ha":694,"x_min":63,"x_max":633,"o":"m 63 608 l 633 608 l 633 524 l 63 524 l 63 608 m 63 321 l 633 321 l 633 236 l 63 236 l 63 321 z "},">":{"ha":694,"x_min":56,"x_max":647,"o":"m 58 689 l 58 788 l 647 478 l 647 411 l 56 65 l 56 171 l 540 443 l 58 689 z "},"?":{"ha":694,"x_min":89,"x_max":603,"o":"m 421 118 q 444 61 444 92 q 420 6 444 29 q 363 -18 396 -18 q 305 6 329 -18 q 281 61 281 29 q 305 117 281 93 q 363 142 329 142 q 421 118 394 142 m 89 779 q 206 885 133 847 q 357 924 278 924 q 458 904 413 924 q 535 851 503 885 q 585 774 567 818 q 603 679 603 729 q 593 610 603 640 q 569 557 583 581 q 535 515 554 533 q 496 481 515 497 l 465 456 q 415 391 425 424 q 406 314 406 358 l 406 257 l 314 257 l 314 314 q 316 367 314 343 q 327 413 318 390 q 355 462 336 436 q 407 521 374 488 q 474 608 456 569 q 493 686 493 647 q 482 744 493 717 q 451 791 471 771 q 406 822 432 811 q 351 833 381 833 q 242 801 293 833 q 160 713 192 768 l 89 779 z "},"@":{"ha":694,"x_min":43,"x_max":646,"o":"m 604 42 q 410 -15 514 -15 q 275 12 340 -15 q 158 94 210 39 q 74 233 106 149 q 43 435 43 318 q 73 634 43 550 q 151 772 103 718 q 258 853 199 826 q 376 879 317 879 q 484 859 435 879 q 569 796 533 839 q 626 685 606 753 q 646 525 646 618 l 646 243 l 563 243 l 563 296 q 428 232 508 232 q 354 247 388 232 q 296 285 321 261 q 257 340 271 310 q 243 404 243 371 q 313 561 243 506 q 538 617 383 617 l 558 617 q 544 690 558 656 q 503 749 529 724 q 444 790 478 775 q 372 804 410 804 q 283 783 328 804 q 203 717 239 761 q 146 603 168 672 q 124 436 124 533 q 149 272 124 342 q 217 156 175 201 q 311 87 258 110 q 418 64 364 64 q 567 110 497 64 l 604 42 m 563 547 l 539 547 q 380 513 431 547 q 329 424 329 478 q 361 340 329 371 q 432 308 393 308 q 537 360 511 308 q 563 521 563 413 l 563 547 z "},"A":{"ha":694,"x_min":21,"x_max":671,"o":"m 21 0 l 326 881 l 338 881 l 671 0 l 571 0 l 475 253 l 200 253 l 117 0 l 21 0 m 453 328 l 331 658 l 219 328 l 453 328 z "},"B":{"ha":694,"x_min":67,"x_max":635,"o":"m 67 865 l 313 865 q 442 851 388 865 q 531 807 497 836 q 582 740 564 778 q 600 656 600 701 q 567 540 600 594 q 472 464 533 486 q 538 428 508 451 q 590 376 568 406 q 624 313 613 347 q 635 243 635 279 q 557 67 635 133 q 311 0 479 0 l 67 0 l 67 865 m 163 783 l 163 507 l 299 507 q 394 517 357 507 q 455 546 432 528 q 489 590 478 564 q 503 644 500 615 q 490 699 500 674 q 457 742 479 724 q 400 772 435 761 q 314 783 365 783 l 163 783 m 163 425 l 163 85 l 328 85 q 483 131 439 85 q 532 249 526 178 q 517 319 529 288 q 478 376 504 351 q 409 413 453 400 q 304 425 365 425 l 163 425 z "},"C":{"ha":694,"x_min":57,"x_max":651,"o":"m 553 669 q 549 694 553 686 q 476 767 521 740 q 382 794 432 794 q 293 770 335 794 q 219 699 251 746 q 169 586 188 653 q 151 435 151 519 q 169 285 151 353 q 220 170 188 218 q 297 96 253 122 q 390 69 340 69 q 490 98 442 69 q 567 175 538 126 l 639 128 q 589 67 618 93 q 527 22 560 40 q 462 -5 494 4 q 396 -14 429 -14 q 263 12 321 -14 q 158 92 206 38 q 83 229 110 146 q 57 428 57 313 q 88 641 57 556 q 168 778 118 726 q 274 851 218 829 q 383 872 331 872 q 467 860 426 872 q 544 825 508 847 q 607 772 579 803 q 651 701 635 740 l 558 656 q 553 669 553 660 z "},"D":{"ha":694,"x_min":75,"x_max":639,"o":"m 75 865 l 276 865 q 449 835 388 865 q 554 747 511 804 q 618 610 597 690 q 639 428 639 529 q 614 249 639 328 q 545 113 589 169 q 432 28 501 57 q 260 -1 363 -1 l 75 -1 l 75 865 m 167 783 l 167 75 l 256 75 q 473 165 404 75 q 542 422 542 254 q 478 688 540 592 q 271 783 417 783 l 167 783 z "},"E":{"ha":694,"x_min":82,"x_max":613,"o":"m 82 867 l 613 867 l 613 781 l 174 781 l 174 496 l 536 496 l 536 407 l 174 407 l 174 86 l 608 86 l 608 0 l 82 0 l 82 867 z "},"F":{"ha":694,"x_min":108,"x_max":607,"o":"m 108 867 l 607 867 l 607 782 l 206 782 l 206 510 l 529 510 l 529 425 l 206 425 l 206 0 l 108 0 l 108 867 z "},"G":{"ha":694,"x_min":50,"x_max":639,"o":"m 636 729 l 568 660 q 550 686 560 665 q 485 760 529 732 q 383 789 442 789 q 301 772 343 789 q 224 715 258 756 q 167 609 189 675 q 146 443 146 543 q 164 283 146 353 q 214 167 182 214 q 290 97 246 121 q 385 72 333 72 q 549 125 475 72 l 549 331 l 392 331 l 392 415 l 639 415 l 639 76 q 385 -14 515 -14 q 245 17 307 -14 q 140 106 183 49 q 73 243 96 163 q 50 422 50 324 q 84 650 50 558 q 172 790 118 742 q 283 856 226 838 q 385 874 339 874 q 532 834 464 874 q 636 729 600 794 z "},"H":{"ha":694,"x_min":75,"x_max":622,"o":"m 75 865 l 183 865 q 185 861 185 864 q 181 850 185 857 q 176 832 178 843 l 176 494 l 515 494 l 515 865 l 621 865 q 622 861 622 864 q 618 849 622 856 q 613 835 614 843 l 613 -1 l 514 -1 l 514 413 l 176 413 l 176 0 l 75 0 l 75 865 z "},"I":{"ha":694,"x_min":113,"x_max":560,"o":"m 122 865 l 551 865 l 551 783 l 381 783 l 381 79 l 560 79 l 560 -1 l 113 -1 l 113 81 l 283 81 l 283 783 l 122 783 l 122 865 z "},"J":{"ha":694,"x_min":68,"x_max":635,"o":"m 239 865 l 635 865 l 635 783 l 501 783 l 501 290 q 485 149 501 206 q 435 54 469 92 q 360 1 400 17 q 272 -15 319 -15 q 68 81 149 -15 l 133 160 q 138 147 138 156 q 143 132 139 138 l 160 115 q 178 101 165 108 q 206 87 190 93 q 239 76 222 81 q 272 71 256 71 q 374 119 342 71 q 406 289 406 168 l 406 783 l 239 783 l 239 865 z "},"K":{"ha":694,"x_min":58,"x_max":654,"o":"m 58 867 l 175 867 q 169 849 175 858 q 163 831 163 840 l 163 467 l 524 872 q 596 865 554 865 l 632 865 l 304 492 l 654 0 l 529 -6 l 231 433 l 163 358 l 163 0 l 58 0 l 58 867 z "},"L":{"ha":694,"x_min":92,"x_max":610,"o":"m 92 865 l 206 865 q 199 843 206 856 q 193 818 193 831 l 193 85 l 610 85 l 610 0 l 92 0 l 92 865 z "},"M":{"ha":694,"x_min":57,"x_max":639,"o":"m 57 865 l 133 865 l 347 442 l 565 867 l 639 867 l 639 0 l 547 0 l 547 653 l 360 304 l 322 304 l 147 649 l 147 0 l 57 0 l 57 865 z "},"N":{"ha":694,"x_min":69,"x_max":631,"o":"m 69 0 l 69 865 l 164 865 l 528 224 l 528 867 l 631 867 q 626 849 631 858 q 621 829 621 839 l 621 0 l 544 0 l 163 681 l 163 0 l 69 0 z "},"O":{"ha":694,"x_min":40,"x_max":654,"o":"m 353 -14 q 224 19 282 -14 q 126 110 167 51 q 63 252 85 169 q 40 435 40 335 q 63 617 40 535 q 128 756 86 699 q 228 844 169 813 q 356 875 286 875 q 469 849 417 875 q 566 769 522 822 q 632 632 610 715 q 654 433 654 549 q 628 223 654 308 q 558 85 601 138 q 462 9 515 32 q 353 -14 408 -14 m 208 160 q 353 82 274 82 q 426 98 390 82 q 492 154 463 114 q 540 263 522 194 q 557 436 557 331 q 538 605 557 539 q 488 710 518 671 q 426 766 458 749 q 356 783 393 783 q 276 768 313 785 q 208 714 240 751 q 156 611 176 676 q 136 443 136 546 q 156 274 136 347 q 208 160 176 200 z "},"P":{"ha":694,"x_min":82,"x_max":633,"o":"m 82 865 l 360 865 q 483 847 432 865 q 566 794 533 828 q 615 715 599 760 q 633 621 631 671 q 615 527 631 571 q 567 451 599 483 q 487 401 536 419 q 367 382 438 382 l 182 382 l 182 0 l 82 0 l 82 865 m 182 774 l 182 468 l 356 468 q 490 509 450 468 q 533 618 529 550 q 520 678 531 650 q 489 728 510 707 q 435 761 468 749 q 357 774 403 774 l 182 774 z "},"Q":{"ha":694,"x_min":40,"x_max":654,"o":"m 207 714 q 135 449 135 632 q 149 297 135 365 q 192 181 164 229 q 263 104 221 132 q 356 76 306 76 q 427 94 390 76 q 494 151 464 111 q 543 253 525 190 q 561 408 561 317 q 542 599 561 525 q 488 714 522 672 q 418 772 454 756 q 349 788 382 788 q 271 767 307 788 q 207 714 235 746 m 654 432 q 590 129 654 240 q 399 -10 525 18 q 422 -85 401 -56 q 501 -114 443 -114 q 524 -112 508 -114 q 557 -110 539 -111 q 591 -108 575 -110 q 614 -107 607 -107 l 611 -201 l 557 -201 q 442 -194 489 -201 q 367 -162 396 -187 q 326 -101 339 -137 q 314 -10 314 -64 q 213 27 261 -3 q 125 111 164 57 q 63 244 86 165 q 40 428 40 322 q 70 644 40 558 q 146 781 100 731 q 246 853 192 831 q 349 875 300 875 q 463 850 408 875 q 563 770 518 825 q 631 633 608 715 q 654 432 654 551 z "},"R":{"ha":694,"x_min":78,"x_max":644,"o":"m 78 865 l 333 865 q 553 797 486 865 q 621 618 621 729 q 608 544 621 581 q 573 475 596 507 q 517 419 550 443 q 444 386 485 396 l 644 0 l 536 0 l 344 382 l 176 382 l 176 0 l 78 0 l 78 865 m 176 774 l 176 468 l 344 468 q 479 509 438 468 q 521 618 521 550 q 510 679 521 651 q 478 728 499 707 q 425 761 458 749 q 344 774 392 774 l 176 774 z "},"S":{"ha":694,"x_min":72,"x_max":632,"o":"m 604 763 l 543 679 q 535 691 536 682 q 532 704 535 700 q 460 767 506 743 q 349 790 415 790 q 242 753 285 790 q 200 664 200 715 q 210 611 200 633 q 242 568 221 589 q 306 526 264 547 q 414 478 347 504 q 519 426 478 451 q 586 371 561 400 q 622 309 611 342 q 632 236 632 276 q 615 147 632 192 q 563 66 599 101 q 474 8 528 31 q 343 -14 419 -14 q 72 97 175 -14 l 129 197 q 136 183 136 193 q 140 168 136 174 q 226 101 172 128 q 357 74 281 74 q 428 87 396 74 q 485 122 461 100 q 522 173 508 143 q 536 236 536 203 q 527 284 536 263 q 497 324 518 306 q 438 362 476 343 q 338 406 400 381 q 224 459 269 432 q 151 514 179 486 q 112 574 124 542 q 100 643 100 606 q 120 732 100 690 q 176 805 140 774 q 260 853 211 836 q 364 871 308 871 q 497 842 435 871 q 604 763 560 814 z "},"T":{"ha":694,"x_min":43,"x_max":643,"o":"m 43 867 l 643 867 l 643 779 l 388 779 l 388 0 l 289 0 l 289 779 l 43 779 l 43 867 z "},"U":{"ha":694,"x_min":69,"x_max":631,"o":"m 69 865 l 179 865 q 181 863 181 865 q 174 847 181 857 q 165 821 168 836 l 165 297 q 179 185 165 225 q 218 120 193 146 q 277 82 243 94 q 350 67 311 69 q 423 81 389 69 q 483 119 457 92 q 523 186 508 146 q 538 301 538 226 l 538 865 l 631 865 l 631 303 q 612 160 631 218 q 554 63 593 101 q 464 4 515 24 q 349 -15 413 -15 q 235 4 286 -15 q 147 61 183 24 q 90 153 110 99 q 69 299 69 207 l 69 865 z "},"V":{"ha":694,"x_min":35,"x_max":664,"o":"m 35 867 l 136 867 l 358 201 l 568 865 l 664 865 l 374 -6 l 329 -6 l 35 867 z "},"W":{"ha":694,"x_min":24,"x_max":678,"o":"m 24 865 l 114 865 l 207 281 l 346 801 l 376 801 l 517 278 l 596 865 l 678 865 l 540 -6 l 503 -6 l 354 565 l 203 -6 l 163 -6 l 24 865 z "},"X":{"ha":694,"x_min":57,"x_max":650,"o":"m 526 867 l 624 867 l 404 443 l 650 0 l 540 0 l 349 343 l 163 0 l 57 0 l 293 442 l 61 867 l 165 867 l 347 538 l 526 867 z "},"Y":{"ha":694,"x_min":39,"x_max":657,"o":"m 39 865 l 150 865 l 363 446 l 554 865 l 657 865 l 411 342 l 411 0 l 306 0 l 306 342 l 39 865 z "},"Z":{"ha":694,"x_min":69,"x_max":643,"o":"m 86 865 l 621 865 l 621 797 l 192 86 l 600 86 q 622 90 610 86 q 643 94 633 94 l 643 0 l 69 0 l 69 68 l 506 778 l 86 778 l 86 865 z "},"[":{"ha":694,"x_min":182,"x_max":581,"o":"m 182 931 l 579 931 l 579 847 l 271 847 l 271 -44 l 581 -44 l 581 -124 l 182 -124 l 182 931 z "},"\\":{"ha":694,"x_min":89,"x_max":607,"o":"m 607 -18 l 525 -58 l 89 881 l 171 924 l 607 -18 z "},"]":{"ha":694,"x_min":115,"x_max":513,"o":"m 513 931 l 513 -124 l 115 -124 l 115 -44 l 425 -44 l 425 847 l 117 847 l 117 931 l 513 931 z "},"^":{"ha":694,"x_min":129,"x_max":560,"o":"m 129 510 l 342 865 l 372 865 l 560 511 l 486 476 l 351 719 l 199 476 l 129 510 z "},"_":{"ha":694,"x_min":49,"x_max":647,"o":"m 49 -26 l 647 -26 l 647 -111 l 49 -111 l 49 -26 z "},"a":{"ha":694,"x_min":68,"x_max":604,"o":"m 126 560 q 353 649 211 649 q 537 590 469 649 q 604 393 604 531 l 604 0 l 510 0 l 510 69 q 282 -15 408 -15 q 192 0 232 -15 q 125 40 153 15 q 83 97 97 65 q 68 161 68 129 q 151 313 68 257 q 389 374 233 368 l 508 374 l 508 397 q 469 529 508 492 q 346 567 429 567 q 175 496 243 567 l 126 560 m 513 297 l 489 297 q 452 298 469 297 q 418 299 435 299 q 293 288 342 299 q 217 260 244 278 q 178 219 189 242 q 168 169 168 196 q 207 93 168 125 q 303 61 246 61 q 378 74 344 61 q 436 106 411 88 q 476 145 461 125 q 499 181 492 165 q 513 256 513 208 l 513 297 z "},"b":{"ha":694,"x_min":83,"x_max":635,"o":"m 83 924 l 200 924 l 200 921 q 192 908 200 914 q 185 893 185 901 l 185 538 q 267 619 215 589 q 374 650 319 650 q 474 630 426 650 q 557 569 521 610 q 614 467 593 528 q 635 324 635 406 q 612 174 635 238 q 551 69 589 111 q 467 6 514 26 q 369 -15 419 -15 q 263 11 311 -15 q 182 83 214 38 l 147 0 l 83 0 l 83 924 m 257 97 q 304 78 283 83 q 343 74 325 74 q 404 84 371 74 q 466 121 438 94 q 513 192 494 147 q 532 304 532 236 q 481 497 532 431 q 332 564 429 564 q 258 539 297 564 q 201 472 219 514 q 185 336 185 431 q 188 238 185 278 q 199 170 190 197 q 221 126 207 143 q 257 97 235 110 z "},"c":{"ha":694,"x_min":78,"x_max":635,"o":"m 635 529 l 564 447 q 558 456 557 451 q 556 469 558 461 q 546 490 554 478 q 513 524 538 503 q 383 563 465 563 q 306 546 343 563 q 242 498 269 529 q 197 423 214 467 q 181 325 181 379 q 197 225 181 271 q 243 146 214 179 q 313 94 272 113 q 401 75 353 75 q 567 153 497 75 l 625 85 q 393 -15 531 -15 q 267 10 325 -15 q 167 79 210 35 q 101 184 125 124 q 78 317 78 244 q 101 449 78 388 q 167 553 125 510 q 269 622 210 597 q 397 647 328 647 q 534 616 472 647 q 635 529 596 585 z "},"d":{"ha":694,"x_min":63,"x_max":622,"o":"m 515 542 l 515 924 l 622 924 q 615 905 622 915 q 608 885 608 894 l 610 58 q 617 0 610 25 l 517 0 q 511 47 511 17 l 511 101 q 428 17 481 49 q 321 -14 375 -14 q 222 7 268 -14 q 140 69 175 28 q 83 174 104 111 q 63 324 63 238 q 86 473 63 411 q 148 574 110 535 q 233 633 186 614 q 329 651 281 651 q 444 622 396 651 q 515 542 492 592 m 219 522 q 160 339 160 468 q 206 147 160 219 q 340 74 251 74 q 385 81 361 74 q 429 104 408 89 q 467 140 450 119 q 492 188 483 161 q 507 321 507 238 q 503 409 507 374 q 490 469 499 444 q 467 510 481 494 q 432 539 453 526 q 385 562 407 554 q 344 569 364 569 q 276 558 304 569 q 219 522 247 547 z "},"e":{"ha":694,"x_min":68,"x_max":618,"o":"m 360 650 q 457 632 410 650 q 540 577 504 614 q 597 483 575 540 q 618 349 618 426 q 617 326 618 338 q 615 303 617 314 l 164 303 q 187 191 167 236 q 238 118 207 146 q 306 78 268 90 q 381 67 343 67 q 544 138 479 67 l 600 83 q 378 -14 519 -14 q 251 8 308 -14 q 153 71 193 29 q 90 174 113 113 q 68 315 68 236 q 91 458 68 396 q 153 563 114 521 q 246 628 193 606 q 360 650 299 650 m 168 381 l 517 381 q 517 391 517 386 q 518 403 518 396 q 505 469 518 438 q 469 523 492 500 q 417 560 447 546 q 353 574 388 574 q 235 527 288 574 q 168 381 182 481 z "},"f":{"ha":694,"x_min":88,"x_max":671,"o":"m 476 932 q 671 844 597 932 l 625 753 q 614 764 614 753 q 611 781 614 775 q 552 833 589 813 q 472 853 515 853 q 410 842 436 853 q 363 808 383 832 q 331 744 342 785 q 321 646 321 704 l 321 597 l 529 597 l 529 518 l 321 518 l 321 0 l 225 0 l 225 518 l 88 518 l 88 597 l 225 597 l 225 660 q 244 785 225 733 q 298 869 263 838 q 378 917 333 901 q 476 932 424 932 z "},"g":{"ha":694,"x_min":53,"x_max":660,"o":"m 215 535 q 185 489 194 514 q 175 436 175 464 q 186 383 175 408 q 216 338 197 357 q 260 308 235 319 q 314 297 286 297 q 368 308 343 297 q 413 339 393 319 q 443 383 432 358 q 454 436 454 408 q 443 490 454 464 q 413 535 432 515 q 367 565 393 554 q 314 576 342 576 q 215 535 257 576 m 471 594 q 629 651 538 651 l 647 651 l 660 569 q 641 572 650 571 q 622 572 632 572 q 513 542 561 572 q 544 435 544 493 q 526 351 544 390 q 477 281 508 311 q 404 234 446 251 q 315 217 363 217 q 235 232 276 217 q 190 160 190 189 q 217 123 190 136 q 292 110 244 110 q 345 112 318 110 q 396 114 372 114 q 503 102 458 114 q 576 69 549 90 q 618 18 604 47 q 632 -44 632 -11 q 614 -117 632 -82 q 560 -180 596 -153 q 469 -223 524 -207 q 340 -239 414 -239 q 209 -227 264 -239 q 121 -194 154 -215 q 70 -147 88 -174 q 53 -89 53 -119 q 157 51 53 -14 q 106 139 106 78 q 178 258 106 199 q 108 333 133 288 q 83 431 83 379 q 103 519 83 478 q 155 590 122 560 q 230 638 188 621 q 317 656 272 656 q 471 594 410 656 m 224 33 q 144 -64 144 -11 q 160 -110 144 -92 q 203 -141 176 -129 q 267 -158 231 -153 q 344 -164 304 -164 q 485 -133 429 -164 q 540 -51 540 -103 q 509 7 538 -14 q 419 28 481 28 q 406 27 413 28 q 392 26 399 26 q 297 28 339 26 q 224 33 256 31 z "},"h":{"ha":694,"x_min":97,"x_max":601,"o":"m 97 0 l 97 924 l 213 924 q 213 922 213 922 q 214 921 214 922 q 208 909 214 917 q 199 890 201 901 l 199 522 q 292 615 236 581 q 407 650 349 650 q 485 635 450 650 q 547 589 521 621 q 588 507 574 557 q 601 385 601 457 l 601 0 l 503 0 l 503 382 q 469 522 503 482 q 386 563 435 563 q 322 549 354 563 q 260 510 290 535 q 215 449 231 485 q 199 365 199 413 l 199 0 l 97 0 z "},"i":{"ha":694,"x_min":139,"x_max":550,"o":"m 147 635 l 401 635 l 401 81 l 550 81 l 550 0 l 139 0 l 139 81 l 301 81 l 301 554 l 147 554 l 147 635 m 303 890 q 353 911 324 911 q 403 890 382 911 q 425 839 425 868 q 403 789 425 810 q 353 768 382 768 q 303 789 324 768 q 282 839 282 810 q 303 890 282 869 z "},"j":{"ha":694,"x_min":67,"x_max":535,"o":"m 175 635 l 513 635 l 513 31 q 493 -92 513 -42 q 440 -175 474 -143 q 360 -223 406 -207 q 261 -242 314 -239 q 67 -153 139 -242 l 132 -67 q 140 -81 139 -74 q 144 -96 140 -87 q 161 -115 149 -104 q 203 -140 174 -125 q 268 -156 233 -156 q 371 -113 331 -156 q 411 25 411 -71 l 411 553 l 175 553 l 175 635 m 411 890 q 463 911 432 911 q 513 890 492 911 q 535 839 535 869 q 513 789 535 810 q 463 768 492 768 q 412 789 433 768 q 390 839 390 810 q 411 890 390 869 z "},"k":{"ha":694,"x_min":92,"x_max":665,"o":"m 92 924 l 206 924 q 199 906 206 915 q 193 888 193 896 l 193 343 l 511 638 q 585 631 543 631 l 621 631 l 354 379 l 665 0 l 536 -6 l 276 318 l 193 240 l 193 0 l 92 0 l 92 924 z "},"l":{"ha":694,"x_min":110,"x_max":585,"o":"m 118 924 l 399 924 l 399 81 l 585 81 l 585 0 l 110 0 l 110 81 l 297 81 l 297 843 l 118 843 l 118 924 z "},"m":{"ha":694,"x_min":53,"x_max":654,"o":"m 53 0 l 53 635 l 144 635 l 144 572 q 201 628 167 607 q 275 650 236 650 q 347 624 315 650 q 386 557 378 597 q 443 624 404 599 q 528 650 482 650 q 624 603 593 650 q 651 488 654 557 l 651 0 l 560 0 l 560 450 q 556 518 560 493 q 542 556 551 543 q 522 573 532 569 q 497 576 513 576 q 461 562 479 576 q 429 525 443 547 q 407 474 415 503 q 399 419 399 446 l 399 0 l 306 0 l 306 442 q 291 547 306 521 q 240 574 276 574 q 176 534 207 574 q 144 424 144 494 l 144 0 l 53 0 z "},"n":{"ha":694,"x_min":94,"x_max":600,"o":"m 94 0 l 94 635 l 197 635 l 197 522 q 290 615 233 581 q 404 650 346 650 q 482 635 446 650 q 544 589 518 621 q 585 507 571 557 q 600 385 600 457 l 600 0 l 501 0 l 501 382 q 467 522 501 482 q 385 563 433 563 q 319 549 353 563 q 259 509 286 535 q 215 447 232 483 q 197 365 197 411 l 197 0 l 94 0 z "},"o":{"ha":694,"x_min":56,"x_max":639,"o":"m 353 649 q 463 626 411 649 q 554 560 515 603 q 616 455 593 517 q 639 317 639 393 q 617 178 639 239 q 556 73 594 117 q 464 6 517 29 q 351 -17 411 -17 q 237 8 290 -17 q 143 77 183 33 q 79 182 103 121 q 56 314 56 243 q 80 447 56 385 q 145 553 104 510 q 240 623 186 597 q 353 649 294 649 m 539 314 q 523 420 539 374 q 481 499 507 467 q 420 547 454 531 q 349 564 386 564 q 277 547 311 564 q 217 499 243 531 q 176 422 192 467 q 161 319 161 376 q 176 218 161 264 q 217 139 192 172 q 278 88 243 106 q 351 69 313 69 q 424 85 390 69 q 484 133 458 101 q 524 210 510 164 q 539 314 539 256 z "},"p":{"ha":694,"x_min":83,"x_max":643,"o":"m 83 635 l 185 635 l 185 538 q 270 619 217 589 q 378 649 324 649 q 478 628 431 649 q 563 568 526 608 q 622 467 600 528 q 643 322 643 406 q 620 175 643 239 q 560 69 597 111 q 474 5 522 26 q 376 -17 426 -17 q 268 10 318 -17 q 186 83 218 36 l 186 -232 l 83 -232 l 83 635 m 185 264 q 232 117 188 161 q 342 72 276 72 q 411 83 376 72 q 475 122 446 94 q 522 193 504 149 q 539 304 539 238 q 488 494 539 426 q 346 564 438 561 q 289 554 318 564 q 237 521 260 544 q 199 458 214 497 q 185 360 185 418 l 185 264 z "},"q":{"ha":694,"x_min":58,"x_max":614,"o":"m 519 542 l 519 635 l 614 635 l 614 -232 l 514 -232 l 514 101 q 432 17 485 49 q 319 -14 379 -14 q 217 10 265 -14 q 134 79 169 35 q 78 186 99 124 q 58 325 58 249 q 81 462 58 401 q 141 565 103 522 q 230 629 179 607 q 338 651 281 651 q 510 558 454 651 q 519 542 519 544 m 338 569 q 269 555 301 569 q 213 511 238 540 q 174 437 189 482 q 160 332 160 392 q 174 223 160 271 q 214 142 189 175 q 272 91 239 108 q 342 74 304 74 q 466 133 421 74 q 511 326 511 193 q 464 516 511 463 q 338 569 417 569 z "},"r":{"ha":694,"x_min":138,"x_max":636,"o":"m 138 635 l 242 635 l 239 513 q 331 615 268 579 q 467 650 394 650 q 636 581 569 650 l 590 485 q 563 519 575 506 q 535 543 550 533 q 503 558 521 553 q 461 564 486 564 q 375 542 415 564 q 305 485 335 521 q 257 404 275 450 q 239 308 239 358 l 239 -1 l 138 -1 l 138 635 z "},"s":{"ha":694,"x_min":79,"x_max":611,"o":"m 600 550 l 542 463 q 535 474 535 464 q 532 488 535 483 q 461 547 507 519 q 357 574 415 574 q 306 567 331 574 q 263 550 282 561 q 233 522 244 539 q 222 482 222 504 q 231 452 222 465 q 257 426 239 439 q 308 401 275 414 q 393 374 340 389 q 562 298 513 342 q 611 190 611 254 q 593 111 611 149 q 540 46 575 74 q 457 2 506 18 q 347 -14 408 -14 q 79 86 188 -14 l 136 186 q 142 173 140 182 q 151 151 143 164 q 182 123 160 139 q 250 88 204 107 q 297 74 271 78 q 350 69 324 69 q 406 76 378 69 q 458 97 435 83 q 494 128 481 110 q 508 171 508 147 q 475 232 508 207 q 353 283 442 257 q 272 308 292 301 q 200 342 222 328 q 160 377 178 357 q 131 423 142 397 q 119 479 119 449 q 138 543 119 513 q 188 597 156 574 q 266 635 221 621 q 364 650 311 650 q 600 550 510 650 z "},"t":{"ha":694,"x_min":97,"x_max":617,"o":"m 261 804 l 371 822 q 367 800 371 810 q 363 785 364 790 l 346 635 l 554 635 l 554 553 l 346 553 q 333 321 333 429 q 336 208 333 254 q 351 136 339 163 q 385 95 363 110 q 444 81 407 81 q 586 138 508 81 l 617 58 q 419 -12 521 -12 q 274 48 319 -12 q 232 244 228 108 q 235 372 232 294 q 246 553 238 450 l 97 553 l 97 635 l 250 635 l 261 804 z "},"u":{"ha":694,"x_min":86,"x_max":611,"o":"m 88 635 l 188 635 l 188 281 q 199 178 188 219 q 230 113 210 138 q 276 76 250 88 q 332 65 301 65 q 396 82 365 68 q 451 122 426 96 q 489 188 475 147 q 503 285 503 228 l 503 635 l 604 635 l 604 57 q 611 0 604 25 l 506 0 q 503 22 504 10 q 503 49 501 33 l 504 97 q 422 15 474 44 q 307 -15 369 -15 q 219 2 258 -15 q 149 56 181 19 q 102 147 118 92 q 86 281 86 203 l 88 635 z "},"v":{"ha":694,"x_min":56,"x_max":635,"o":"m 69 600 l 56 635 l 175 635 q 173 617 175 625 q 171 604 171 610 q 172 600 171 601 l 356 136 l 458 372 q 513 514 492 449 q 544 635 533 579 l 635 635 q 539 357 607 518 l 385 -4 l 307 -4 l 69 600 z "},"w":{"ha":694,"x_min":22,"x_max":668,"o":"m 22 635 l 124 635 l 124 629 q 121 610 124 621 q 118 590 118 600 q 119 582 118 585 l 213 125 l 321 575 l 382 575 l 517 126 q 547 328 535 249 q 565 459 558 407 q 573 545 571 511 q 575 614 575 579 l 575 635 l 668 635 q 621 315 647 474 q 563 -1 594 157 l 468 -1 l 351 410 l 240 -1 l 150 -1 l 22 635 z "},"x":{"ha":694,"x_min":65,"x_max":633,"o":"m 503 635 l 606 635 l 400 326 l 633 0 l 519 0 l 344 247 l 179 0 l 65 0 l 289 322 l 69 635 l 179 635 l 344 400 l 503 635 z "},"y":{"ha":694,"x_min":31,"x_max":643,"o":"m 82 590 l 64 635 l 188 635 q 185 616 188 624 q 182 601 182 608 q 185 593 182 596 l 371 126 l 492 467 q 521 558 510 515 q 539 635 532 600 l 643 635 q 616 553 631 599 q 581 451 601 507 l 408 -3 l 382 -72 q 297 -203 349 -165 q 176 -242 244 -242 q 31 -187 86 -242 l 83 -99 q 90 -112 88 -103 q 94 -124 93 -121 q 100 -130 94 -124 q 115 -142 106 -136 q 138 -154 124 -149 q 168 -160 151 -160 q 240 -135 208 -160 q 301 -44 271 -110 l 321 3 l 82 590 z "},"z":{"ha":694,"x_min":69,"x_max":625,"o":"m 99 635 l 592 635 l 592 567 l 206 86 l 582 86 q 603 90 592 86 q 625 94 615 94 l 625 0 l 69 0 l 69 68 l 463 547 l 99 547 l 99 635 z "},"{":{"ha":694,"x_min":74,"x_max":567,"o":"m 221 22 l 226 161 q 194 285 226 253 q 101 317 161 317 l 74 317 l 74 394 l 100 394 q 197 429 164 394 q 229 543 229 464 l 226 643 q 479 885 226 885 l 567 885 l 567 806 l 453 806 q 324 658 324 806 l 326 561 q 206 356 326 407 q 324 140 324 317 l 319 24 q 360 -107 319 -71 q 494 -143 401 -143 l 565 -143 l 565 -221 l 515 -221 q 395 -216 449 -221 q 299 -179 342 -211 q 221 22 221 -118 z "},"|":{"ha":694,"x_min":301,"x_max":394,"o":"m 301 906 l 394 906 l 394 -210 l 301 -210 l 301 906 z "},"}":{"ha":694,"x_min":128,"x_max":622,"o":"m 469 643 l 465 543 q 499 429 465 464 q 594 394 532 394 l 622 394 l 622 317 l 593 317 q 501 285 533 317 q 469 161 469 253 l 474 22 q 418 -161 474 -101 q 243 -221 363 -221 l 129 -221 l 129 -143 l 206 -143 q 255 -142 236 -143 q 285 -137 274 -140 q 305 -129 297 -133 q 319 -119 313 -125 q 376 24 376 -79 l 372 140 q 489 356 372 315 q 368 561 368 407 l 372 658 q 338 772 372 738 q 232 806 303 806 l 128 806 l 128 885 l 171 885 q 271 881 218 885 q 368 851 324 878 q 441 776 413 825 q 469 643 469 728 z "},"~":{"ha":694,"x_min":57,"x_max":661,"o":"m 126 475 l 57 521 q 141 610 90 575 q 239 644 192 644 q 322 628 288 644 q 376 593 356 613 q 471 540 433 540 q 536 563 510 540 q 597 631 563 585 l 661 578 q 622 529 644 553 q 576 488 600 506 q 528 460 553 471 q 478 450 503 450 q 397 467 431 450 q 344 506 364 485 q 242 561 293 561 q 126 475 179 561 z "}," ":{"ha":694,"x_min":0,"x_max":0,"o":""},"¡":{"ha":694,"x_min":250,"x_max":415,"o":"m 274 788 q 250 844 250 810 q 275 903 250 878 q 332 928 300 928 q 390 903 364 928 q 415 844 415 878 q 390 788 415 813 q 332 764 365 764 q 274 788 297 764 m 331 -15 q 279 13 299 -15 q 260 100 260 40 q 261 137 260 115 q 265 186 263 158 l 272 258 l 297 643 l 367 643 l 388 258 q 391 214 389 238 q 395 166 393 190 q 399 120 397 142 q 401 85 401 99 q 382 10 401 36 q 331 -15 363 -15 z "},"¢":{"ha":694,"x_min":67,"x_max":626,"o":"m 396 867 l 489 857 q 483 838 489 849 q 476 818 478 828 l 463 704 q 626 597 569 683 l 565 518 q 560 535 560 522 q 554 554 560 549 q 451 621 514 603 l 388 135 q 569 213 492 135 l 619 144 q 386 46 529 46 l 375 46 l 354 -110 l 275 -100 l 294 57 q 128 172 190 86 q 67 389 67 258 q 90 511 67 454 q 153 612 113 568 q 250 682 193 656 q 376 711 307 708 l 396 867 m 306 150 l 365 631 q 285 610 321 628 q 222 561 249 592 q 180 490 194 531 q 165 400 165 449 q 203 239 165 303 q 306 150 242 175 z "},"£":{"ha":694,"x_min":54,"x_max":653,"o":"m 581 794 l 519 718 q 505 740 508 729 q 485 760 501 751 q 403 786 451 786 q 347 776 374 786 q 297 746 319 767 q 262 692 275 725 q 249 615 249 660 q 260 525 249 581 l 399 525 l 399 446 l 279 446 q 297 311 297 368 q 247 125 297 206 q 269 127 257 126 q 299 128 282 128 q 340 119 313 128 q 400 99 368 110 q 464 80 432 89 q 518 71 496 71 q 617 110 569 71 l 653 38 q 508 -21 579 -21 q 457 -11 489 -21 q 388 10 425 -1 q 315 32 351 22 q 250 42 279 42 q 90 -11 189 42 l 54 68 q 104 92 86 83 q 132 109 122 101 q 147 123 142 117 q 157 139 151 129 q 206 308 206 215 q 185 446 206 360 l 93 446 l 93 525 l 165 525 q 156 614 156 572 q 175 717 156 671 q 228 797 194 764 q 306 847 261 829 q 400 865 350 865 q 581 794 503 865 z "},"¤":{"ha":694,"x_min":94,"x_max":600,"o":"m 94 683 l 144 732 l 222 654 q 349 694 279 694 q 472 656 414 694 l 550 732 l 600 683 l 522 607 q 564 479 564 549 q 524 353 564 410 l 600 276 l 550 228 l 474 304 q 414 274 446 283 q 349 264 382 264 q 221 306 279 264 l 144 228 l 94 276 l 172 356 q 143 415 153 383 q 133 479 133 447 q 143 544 133 513 q 174 604 153 576 l 94 683 m 446 578 q 347 619 404 619 q 294 608 319 619 q 250 578 269 597 q 219 533 231 558 q 208 479 208 508 q 219 426 208 451 q 249 381 231 400 q 294 351 268 363 q 347 340 319 340 q 401 351 376 340 q 446 382 426 363 q 476 426 465 401 q 488 479 488 451 q 446 578 488 536 z "},"¥":{"ha":694,"x_min":50,"x_max":647,"o":"m 50 867 l 158 867 l 360 504 l 544 865 l 647 865 l 406 410 l 406 381 l 592 381 l 592 301 l 406 301 l 406 214 l 592 214 l 592 136 l 406 136 l 406 0 l 311 0 l 311 136 l 117 136 l 117 214 l 311 214 l 311 301 l 117 301 l 117 381 l 311 381 l 311 410 l 50 867 z "},"¦":{"ha":694,"x_min":301,"x_max":394,"o":"m 301 906 l 394 906 l 394 410 l 301 410 l 301 906 m 394 -210 l 301 -210 l 301 272 l 394 272 l 394 -210 z "},"§":{"ha":694,"x_min":90,"x_max":581,"o":"m 574 810 l 494 740 q 486 756 488 747 q 473 791 483 774 q 444 822 463 808 q 403 843 426 835 q 356 851 381 851 q 308 843 331 851 q 268 820 285 835 q 242 786 251 806 q 232 744 232 767 q 244 692 232 711 q 284 653 257 672 q 353 621 311 635 q 453 582 394 607 q 581 424 581 521 q 552 345 581 382 q 478 290 524 308 q 567 136 567 231 q 549 51 567 90 q 499 -15 531 13 q 424 -59 468 -43 q 331 -75 381 -75 q 197 -45 260 -75 q 90 43 133 -15 l 163 128 q 172 121 171 125 q 176 109 174 117 q 185 89 178 101 q 214 57 193 76 q 325 17 257 17 q 431 49 393 17 q 468 126 468 81 q 460 169 468 150 q 435 203 453 188 q 385 233 417 219 q 306 261 353 247 q 154 336 199 296 q 110 439 110 376 q 141 523 110 485 q 224 579 172 561 q 131 736 131 635 q 148 812 131 776 q 196 874 165 847 q 268 917 226 901 q 357 933 310 933 q 483 901 425 933 q 574 810 540 868 m 274 554 q 228 521 246 544 q 211 467 211 497 q 245 391 211 421 q 356 339 279 361 q 397 327 379 332 q 426 317 415 322 q 476 406 476 343 q 442 479 476 451 q 333 533 408 507 l 274 554 z "},"¨":{"ha":694,"x_min":156,"x_max":543,"o":"m 275 903 q 296 853 296 882 q 275 804 296 825 q 226 783 254 783 q 176 804 197 783 q 156 853 156 825 q 176 902 156 881 q 226 924 197 924 q 275 903 254 924 m 522 903 q 543 853 543 882 q 522 804 543 825 q 474 783 501 783 q 424 803 444 783 q 404 853 404 824 q 424 903 404 882 q 474 924 444 924 q 522 903 501 924 z "},"©":{"ha":694,"x_min":19,"x_max":692,"o":"m 538 460 l 465 433 q 460 450 460 443 q 459 465 461 457 q 449 481 457 472 q 419 506 442 490 q 364 519 396 519 q 322 513 344 519 q 281 490 300 506 q 250 449 263 474 q 238 390 238 425 q 248 333 238 360 q 276 285 258 306 q 317 253 293 265 q 368 242 340 242 q 429 258 401 242 q 472 304 457 275 l 533 264 q 458 194 504 219 q 363 169 413 169 q 283 187 319 169 q 219 233 246 204 q 176 301 192 263 q 160 383 160 340 q 176 465 160 426 q 221 530 193 503 q 283 573 249 557 q 353 589 317 589 q 476 553 428 589 q 538 460 524 518 m 592 129 q 354 26 493 26 q 224 54 285 26 q 117 131 163 82 q 46 243 72 179 q 19 381 19 307 q 46 519 19 454 q 118 632 72 583 q 225 708 164 681 q 356 736 286 736 q 485 708 424 736 q 592 632 546 681 q 665 519 638 583 q 692 381 692 454 q 592 129 692 233 m 357 678 q 250 655 300 678 q 163 592 200 632 q 103 497 125 551 q 82 381 82 443 q 103 265 82 319 q 163 172 125 211 q 250 109 200 132 q 357 86 300 86 q 463 110 413 86 q 550 174 513 133 q 610 267 588 214 q 632 382 632 321 q 610 497 632 443 q 551 590 589 550 q 464 654 514 631 q 357 678 414 678 z "},"ª":{"ha":694,"x_min":106,"x_max":590,"o":"m 451 678 q 349 790 451 790 q 218 729 263 790 l 171 786 q 357 864 240 864 q 492 818 444 861 q 540 688 540 775 l 540 674 l 540 371 l 453 371 l 453 417 q 311 357 389 357 q 188 400 235 357 q 142 503 142 443 q 185 603 142 561 q 304 656 229 644 q 379 660 349 660 q 432 661 410 661 l 451 661 l 451 678 m 456 589 l 433 589 q 336 586 375 589 q 274 573 297 583 q 240 547 250 563 q 231 504 231 531 q 253 455 231 478 q 321 432 276 432 q 363 439 339 432 q 407 461 386 446 q 442 501 428 476 q 456 564 456 526 l 456 589 m 106 286 l 590 286 l 590 211 l 106 211 l 106 286 z "},"«":{"ha":694,"x_min":93,"x_max":619,"o":"m 346 351 l 556 556 l 610 499 l 442 335 l 619 140 l 564 85 l 346 319 l 346 351 m 93 351 l 304 556 l 358 499 l 190 335 l 368 140 l 313 85 l 93 319 l 93 351 z "},"¬":{"ha":694,"x_min":126,"x_max":575,"o":"m 126 482 l 575 482 l 575 218 l 486 218 l 486 394 l 126 394 l 126 482 z "},"­":{"ha":694,"x_min":99,"x_max":599,"o":"m 99 483 l 599 483 l 599 390 l 99 390 l 99 483 z "},"®":{"ha":694,"x_min":19,"x_max":692,"o":"m 592 129 q 354 26 493 26 q 224 54 285 26 q 117 131 163 82 q 46 243 72 179 q 19 381 19 307 q 46 519 19 454 q 118 632 72 583 q 225 708 164 681 q 356 736 286 736 q 485 708 424 736 q 592 632 546 681 q 665 519 638 583 q 692 381 692 454 q 592 129 692 233 m 357 678 q 250 655 300 678 q 163 592 200 632 q 103 497 125 551 q 82 381 82 443 q 103 265 82 319 q 163 172 125 211 q 250 109 200 132 q 357 86 300 86 q 463 110 413 86 q 550 174 513 133 q 610 267 588 214 q 632 382 632 321 q 610 497 632 443 q 551 590 589 550 q 464 654 514 631 q 357 678 414 678 m 215 185 l 215 590 l 346 590 q 474 557 436 590 q 513 472 513 524 q 492 407 513 438 q 433 365 472 376 l 522 192 l 457 182 l 371 356 l 279 356 l 279 185 l 215 185 m 351 411 q 450 472 450 411 q 347 533 450 533 l 279 533 l 279 411 l 351 411 z "},"¯":{"ha":694,"x_min":171,"x_max":524,"o":"m 171 863 l 524 863 l 524 785 l 171 785 l 171 863 z "},"°":{"ha":694,"x_min":168,"x_max":543,"o":"m 488 832 q 543 700 543 778 q 528 628 543 663 q 488 569 514 594 q 428 529 463 544 q 356 514 394 514 q 283 528 317 514 q 223 568 249 543 q 183 627 197 593 q 168 700 168 661 q 183 774 168 739 q 224 833 199 808 q 284 873 250 858 q 356 888 318 888 q 488 832 433 888 m 429 781 q 357 814 400 814 q 317 805 336 814 q 283 780 297 796 q 261 744 269 764 q 253 701 253 724 q 283 624 253 657 q 356 590 313 590 q 430 624 400 590 q 460 701 460 657 q 429 781 460 746 z "},"±":{"ha":694,"x_min":63,"x_max":635,"o":"m 64 111 l 635 111 l 635 24 l 64 24 l 64 111 m 308 799 l 396 799 l 396 561 l 633 561 l 633 476 l 396 476 l 396 215 l 308 215 l 308 476 l 63 476 l 63 561 l 308 561 l 308 799 z "},"²":{"ha":694,"x_min":154,"x_max":556,"o":"m 154 769 q 240 854 186 824 q 367 885 294 885 q 433 873 401 885 q 490 840 465 861 q 530 790 515 819 q 544 726 544 761 q 538 678 544 699 q 514 636 531 657 q 467 591 497 615 q 389 532 436 567 q 323 478 353 504 q 269 426 293 453 l 522 426 q 537 433 529 426 q 551 439 544 439 l 556 439 l 556 351 l 168 351 l 168 413 q 247 503 206 463 q 350 590 288 543 l 389 621 q 442 677 425 649 q 460 729 460 706 q 432 789 460 764 q 361 814 404 814 q 233 756 279 814 q 226 741 229 750 q 219 726 222 732 l 154 769 z "},"³":{"ha":694,"x_min":156,"x_max":564,"o":"m 358 886 q 429 874 396 886 q 488 842 463 863 q 526 794 513 821 q 540 736 540 767 q 518 669 540 699 q 461 628 496 639 q 535 587 506 621 q 564 508 564 553 q 547 447 564 475 q 501 396 529 418 q 434 361 472 374 q 354 349 396 349 q 156 439 235 349 l 221 511 q 230 491 226 504 q 240 472 233 478 q 346 426 286 426 q 442 453 406 426 q 478 517 478 479 q 445 573 478 553 q 356 593 413 593 q 335 592 344 593 q 314 590 325 592 l 314 661 q 328 660 321 660 q 342 660 335 660 q 431 681 404 660 q 457 732 457 701 q 428 788 457 763 q 354 813 399 813 q 224 749 275 813 l 174 800 q 358 886 247 886 z "},"´":{"ha":694,"x_min":283,"x_max":493,"o":"m 406 971 l 493 913 l 353 725 l 283 767 l 406 971 z "},"µ":{"ha":694,"x_min":33,"x_max":686,"o":"m 517 161 q 572 65 517 65 q 612 82 592 65 q 640 117 632 99 l 649 133 l 686 63 q 564 -14 635 -14 q 488 17 519 -14 q 450 93 456 49 q 378 13 426 39 q 279 -14 331 -14 q 184 10 228 -14 q 121 83 140 35 q 121 -74 121 4 q 119 -232 121 -153 l 33 -232 q 35 -174 33 -212 q 41 -86 38 -135 q 48 17 44 -37 q 54 121 51 71 q 59 213 57 171 q 61 281 61 256 l 61 635 l 153 635 l 153 258 q 164 163 153 200 q 194 104 175 126 q 237 72 213 82 q 288 60 261 63 q 339 74 314 63 q 384 109 364 86 q 416 168 404 132 q 428 254 428 204 l 428 267 l 428 635 l 517 635 l 517 161 z "},"¶":{"ha":694,"x_min":89,"x_max":606,"o":"m 606 924 l 606 -94 l 525 -94 l 525 844 l 419 844 l 419 -94 l 338 -94 l 338 447 q 240 471 285 450 q 161 524 194 492 q 108 599 128 557 q 89 689 89 642 q 106 779 89 736 q 165 855 124 822 q 271 906 206 888 q 432 924 336 924 l 606 924 z "},"·":{"ha":694,"x_min":249,"x_max":414,"o":"m 389 515 q 414 460 414 492 q 390 404 414 428 q 331 381 365 381 q 272 403 296 381 q 249 460 249 426 q 274 516 249 493 q 331 539 299 539 q 389 515 363 539 z "},"¸":{"ha":694,"x_min":218,"x_max":533,"o":"m 454 -151 q 389 -118 454 -118 l 347 -118 l 363 0 l 424 0 l 415 -65 l 439 -67 q 533 -143 533 -74 q 494 -214 533 -182 q 372 -246 454 -246 q 218 -194 290 -246 l 253 -136 q 390 -186 313 -186 q 440 -176 426 -186 q 454 -151 454 -165 z "},"¹":{"ha":694,"x_min":169,"x_max":415,"o":"m 415 879 l 415 351 l 326 351 l 326 768 l 192 733 l 169 776 l 354 879 l 415 879 z "},"º":{"ha":694,"x_min":106,"x_max":590,"o":"m 133 603 q 151 709 133 661 q 197 791 168 757 q 265 844 226 825 q 346 864 304 864 q 426 847 389 864 q 492 799 464 831 q 535 720 519 767 q 551 613 551 674 q 534 505 551 553 q 488 424 517 457 q 420 373 458 390 q 340 356 382 356 q 260 374 297 356 q 194 424 222 392 q 149 502 165 457 q 133 603 133 547 m 343 786 q 254 739 292 786 q 217 608 217 692 q 254 481 217 525 q 342 436 292 436 q 431 480 393 436 q 468 607 468 524 q 431 739 468 692 q 343 786 394 786 m 106 286 l 590 286 l 590 211 l 106 211 l 106 286 z "},"»":{"ha":694,"x_min":93,"x_max":619,"o":"m 368 351 l 368 319 l 149 85 l 93 140 l 271 335 l 103 499 l 157 556 l 368 351 m 619 351 l 619 319 l 400 85 l 346 140 l 522 335 l 354 499 l 408 556 l 619 351 z "},"¼":{"ha":694,"x_min":7,"x_max":663,"o":"m 106 -22 l 540 924 l 607 886 l 171 -58 l 106 -22 m 550 336 l 593 336 l 593 63 l 663 63 l 663 11 l 593 11 l 593 -97 l 529 -97 l 529 11 l 328 11 l 328 51 l 550 336 m 531 228 l 400 63 l 531 63 l 531 228 m 203 940 l 203 519 l 132 519 l 132 853 l 25 825 l 7 860 l 156 940 l 203 940 z "},"½":{"ha":694,"x_min":7,"x_max":686,"o":"m 106 -22 l 540 924 l 607 886 l 171 -58 l 106 -22 m 365 233 q 435 302 392 278 q 540 326 479 326 q 594 316 569 326 q 637 288 618 306 q 666 247 656 269 q 676 199 676 224 q 672 160 676 176 q 653 126 667 143 q 616 90 640 110 q 553 43 592 71 q 457 -40 492 -1 l 660 -40 q 672 -35 665 -40 q 686 -31 679 -31 l 686 -101 l 375 -101 l 375 -53 q 436 17 400 -19 q 521 90 472 54 l 553 114 q 610 194 610 163 q 587 249 610 229 q 526 269 564 269 q 428 222 463 269 q 422 210 424 218 q 417 199 419 203 l 365 233 m 203 940 l 203 519 l 132 519 l 132 853 l 25 825 l 7 860 l 156 940 l 203 940 z "},"¾":{"ha":694,"x_min":15,"x_max":663,"o":"m 113 -22 l 547 924 l 614 886 l 178 -58 l 113 -22 m 178 950 q 235 940 208 950 q 281 915 261 931 q 311 877 300 899 q 322 831 322 856 q 305 776 322 800 q 260 743 288 753 q 319 710 296 738 q 342 649 342 683 q 328 598 342 621 q 291 557 314 575 q 238 529 268 539 q 174 519 207 519 q 15 592 79 519 l 68 650 q 75 634 72 644 q 83 618 78 624 q 125 590 103 599 q 171 582 147 582 q 242 602 211 582 q 274 649 274 622 q 251 699 274 682 q 175 715 228 715 q 158 715 167 715 q 142 714 150 715 l 142 769 q 157 767 149 767 q 172 768 165 768 q 237 785 217 768 q 257 825 257 803 q 235 870 257 849 q 174 892 213 892 q 71 839 111 892 l 31 881 q 178 950 89 950 m 550 336 l 593 336 l 593 63 l 663 63 l 663 11 l 593 11 l 593 -97 l 529 -97 l 529 11 l 328 11 l 328 51 l 550 336 m 531 228 l 400 63 l 531 63 l 531 228 z "},"¿":{"ha":694,"x_min":93,"x_max":608,"o":"m 275 788 q 251 844 251 810 q 276 901 251 878 q 333 924 301 924 q 391 900 365 924 q 417 844 417 876 q 392 789 417 813 q 333 765 368 765 q 275 788 299 765 m 608 126 q 492 20 564 58 q 340 -18 419 -18 q 236 1 282 -18 q 158 54 190 21 q 110 132 126 88 q 93 226 93 176 q 126 345 93 299 q 200 426 158 392 l 231 451 q 281 515 269 483 q 292 592 292 547 l 292 650 l 382 650 l 382 592 q 380 537 382 560 q 369 492 378 514 q 341 444 360 469 q 290 386 322 419 q 222 297 240 333 q 203 219 203 260 q 215 162 203 189 q 246 115 226 135 q 291 84 265 96 q 344 72 317 72 q 453 105 403 72 q 538 193 504 138 l 608 126 z "},"À":{"ha":694,"x_min":21,"x_max":671,"o":"m 21 0 l 326 881 l 338 881 l 671 0 l 571 0 l 475 253 l 200 253 l 117 0 l 21 0 m 453 328 l 331 658 l 219 328 l 453 328 m 254 1099 l 467 975 l 435 917 l 199 1001 l 254 1099 z "},"Á":{"ha":694,"x_min":21,"x_max":671,"o":"m 21 0 l 326 881 l 338 881 l 671 0 l 571 0 l 475 253 l 200 253 l 117 0 l 21 0 m 453 328 l 331 658 l 219 328 l 453 328 m 429 1099 l 485 1001 l 250 917 l 218 975 l 429 1099 z "},"Â":{"ha":694,"x_min":21,"x_max":671,"o":"m 21 0 l 326 881 l 338 881 l 671 0 l 571 0 l 475 253 l 200 253 l 117 0 l 21 0 m 453 328 l 331 658 l 219 328 l 453 328 m 143 961 l 325 1099 l 356 1099 l 526 963 l 481 910 l 338 1008 l 182 914 l 143 961 z "},"Ã":{"ha":694,"x_min":21,"x_max":671,"o":"m 21 0 l 326 881 l 338 881 l 671 0 l 571 0 l 475 253 l 200 253 l 117 0 l 21 0 m 453 328 l 331 658 l 219 328 l 453 328 m 182 949 l 119 993 q 276 1114 196 1114 q 328 1098 301 1114 q 380 1062 356 1082 q 423 1026 404 1042 q 451 1010 442 1010 q 499 1031 483 1010 q 538 1083 515 1053 l 590 1028 q 518 953 549 978 q 456 929 488 929 q 399 946 424 929 q 352 982 374 963 q 313 1018 331 1001 q 278 1035 294 1035 q 229 1016 247 1035 q 182 949 211 997 z "},"Ä":{"ha":694,"x_min":21,"x_max":671,"o":"m 21 0 l 326 881 l 338 881 l 671 0 l 571 0 l 475 253 l 200 253 l 117 0 l 21 0 m 453 328 l 331 658 l 219 328 l 453 328 m 260 1075 q 281 1025 281 1054 q 260 976 281 997 q 210 956 239 956 q 161 976 182 956 q 140 1025 140 997 q 161 1074 140 1053 q 210 1096 182 1096 q 260 1075 239 1096 m 507 1075 q 528 1025 528 1054 q 507 976 528 997 q 457 956 486 956 q 409 976 429 956 q 389 1025 389 996 q 409 1075 389 1054 q 457 1096 429 1096 q 507 1075 486 1096 z "},"Å":{"ha":694,"x_min":21,"x_max":671,"o":"m 335 1046 q 294 1028 311 1046 q 276 982 276 1010 q 294 938 276 956 q 335 919 311 919 q 375 938 358 919 q 392 982 392 956 q 375 1028 392 1010 q 335 1046 358 1046 m 453 328 l 331 658 l 219 328 l 453 328 m 344 860 l 671 0 l 571 0 l 475 253 l 200 253 l 117 -1 l 21 -1 l 319 860 q 238 900 271 865 q 206 983 206 935 q 215 1030 206 1008 q 242 1068 225 1051 q 283 1094 260 1085 q 333 1104 307 1104 q 383 1094 360 1104 q 423 1068 406 1085 q 450 1030 440 1051 q 460 983 460 1008 q 427 899 460 935 q 344 860 394 864 z "},"Æ":{"ha":694,"x_min":6,"x_max":672,"o":"m 278 867 l 672 867 l 672 781 l 435 781 l 435 496 l 636 496 l 636 407 l 435 407 l 435 86 l 669 86 l 669 0 l 350 0 l 350 235 l 169 235 l 94 0 l 6 0 l 278 867 m 350 781 l 335 781 l 189 315 l 350 315 l 350 781 z "},"Ç":{"ha":694,"x_min":57,"x_max":651,"o":"m 454 -151 q 389 -118 454 -118 l 347 -118 l 361 -14 q 248 19 303 -8 q 150 100 193 47 q 82 233 107 153 q 57 421 57 313 q 89 642 57 554 q 169 780 121 729 q 274 851 217 831 q 383 872 332 872 q 467 860 426 872 q 544 825 508 847 q 607 772 579 803 q 651 701 635 740 l 558 656 q 553 669 553 660 q 549 694 553 686 q 476 767 521 740 q 382 794 432 794 q 293 770 335 794 q 220 699 251 746 q 170 586 189 653 q 151 435 151 519 q 169 285 151 353 q 220 170 188 218 q 297 96 253 122 q 390 69 340 69 q 490 98 442 69 q 567 175 538 126 l 639 128 q 546 33 603 69 q 422 -12 489 -4 l 415 -65 l 439 -67 q 533 -143 533 -74 q 494 -214 533 -182 q 372 -246 454 -246 q 218 -194 290 -246 l 253 -136 q 390 -186 313 -186 q 440 -176 426 -186 q 454 -151 454 -165 z "},"È":{"ha":694,"x_min":82,"x_max":613,"o":"m 82 867 l 613 867 l 613 781 l 174 781 l 174 496 l 536 496 l 536 407 l 174 407 l 174 86 l 608 86 l 608 0 l 82 0 l 82 867 m 254 1099 l 467 975 l 435 917 l 199 1001 l 254 1099 z "},"É":{"ha":694,"x_min":82,"x_max":613,"o":"m 82 867 l 613 867 l 613 781 l 174 781 l 174 496 l 536 496 l 536 407 l 174 407 l 174 86 l 608 86 l 608 0 l 82 0 l 82 867 m 451 1099 l 507 1001 l 272 917 l 240 975 l 451 1099 z "},"Ê":{"ha":694,"x_min":82,"x_max":613,"o":"m 82 867 l 613 867 l 613 781 l 174 781 l 174 496 l 536 496 l 536 407 l 174 407 l 174 86 l 608 86 l 608 0 l 82 0 l 82 867 m 154 961 l 336 1099 l 367 1099 l 538 963 l 492 910 l 349 1008 l 193 914 l 154 961 z "},"Ë":{"ha":694,"x_min":82,"x_max":613,"o":"m 82 867 l 613 867 l 613 781 l 174 781 l 174 496 l 536 496 l 536 407 l 174 407 l 174 86 l 608 86 l 608 0 l 82 0 l 82 867 m 268 1075 q 289 1025 289 1054 q 268 976 289 997 q 218 956 247 956 q 169 976 190 956 q 149 1025 149 997 q 169 1074 149 1053 q 218 1096 190 1096 q 268 1075 247 1096 m 515 1075 q 536 1025 536 1054 q 515 976 536 997 q 465 956 494 956 q 417 976 438 956 q 397 1025 397 996 q 417 1075 397 1054 q 465 1096 438 1096 q 515 1075 494 1096 z "},"Ì":{"ha":694,"x_min":113,"x_max":560,"o":"m 122 865 l 551 865 l 551 783 l 381 783 l 381 79 l 560 79 l 560 -1 l 113 -1 l 113 81 l 283 81 l 283 783 l 122 783 l 122 865 m 254 1099 l 467 975 l 435 917 l 199 1001 l 254 1099 z "},"Í":{"ha":694,"x_min":113,"x_max":560,"o":"m 122 865 l 551 865 l 551 783 l 381 783 l 381 79 l 560 79 l 560 -1 l 113 -1 l 113 81 l 283 81 l 283 783 l 122 783 l 122 865 m 451 1099 l 507 1001 l 272 917 l 240 975 l 451 1099 z "},"Î":{"ha":694,"x_min":113,"x_max":560,"o":"m 122 865 l 551 865 l 551 783 l 381 783 l 381 79 l 560 79 l 560 -1 l 113 -1 l 113 81 l 283 81 l 283 783 l 122 783 l 122 865 m 142 961 l 324 1099 l 354 1099 l 525 963 l 479 910 l 336 1008 l 181 914 l 142 961 z "},"Ï":{"ha":694,"x_min":113,"x_max":560,"o":"m 122 865 l 551 865 l 551 783 l 381 783 l 381 79 l 560 79 l 560 -1 l 113 -1 l 113 81 l 283 81 l 283 783 l 122 783 l 122 865 m 264 1075 q 285 1025 285 1054 q 264 976 285 997 q 214 956 243 956 q 165 976 186 956 q 144 1025 144 997 q 165 1074 144 1053 q 214 1096 186 1096 q 264 1075 243 1096 m 511 1075 q 532 1025 532 1054 q 511 976 532 997 q 461 956 490 956 q 413 976 433 956 q 393 1025 393 996 q 413 1075 393 1054 q 461 1096 433 1096 q 511 1075 490 1096 z "},"Ð":{"ha":694,"x_min":42,"x_max":647,"o":"m 110 865 l 303 865 q 462 833 397 865 q 567 744 526 801 q 628 605 608 686 q 647 425 647 524 q 633 301 647 363 q 594 185 619 239 q 530 90 568 132 q 443 25 492 47 q 286 -1 389 -1 l 110 -1 l 110 418 l 42 418 l 42 499 l 110 499 l 110 865 m 199 418 l 199 79 l 282 79 q 485 170 415 79 q 554 425 554 261 q 492 688 554 592 q 297 783 431 783 l 199 783 l 199 499 l 344 499 l 344 418 l 199 418 z "},"Ñ":{"ha":694,"x_min":69,"x_max":631,"o":"m 69 0 l 69 865 l 164 865 l 528 224 l 528 867 l 631 867 q 626 849 631 858 q 621 829 621 839 l 621 0 l 544 0 l 163 681 l 163 0 l 69 0 m 189 949 l 126 993 q 283 1114 203 1114 q 335 1098 308 1114 q 387 1062 363 1082 q 430 1026 411 1042 q 458 1010 449 1010 q 506 1031 490 1010 q 544 1083 522 1053 l 597 1028 q 525 953 556 978 q 463 929 494 929 q 406 946 431 929 q 359 982 381 963 q 319 1018 338 1001 q 285 1035 301 1035 q 236 1016 254 1035 q 189 949 218 997 z "},"Ò":{"ha":694,"x_min":40,"x_max":654,"o":"m 353 -14 q 224 19 282 -14 q 126 110 167 51 q 63 252 85 169 q 40 435 40 335 q 63 617 40 535 q 128 756 86 699 q 228 844 169 813 q 356 875 286 875 q 469 849 417 875 q 566 769 522 822 q 632 632 610 715 q 654 433 654 549 q 628 223 654 308 q 558 85 601 138 q 462 9 515 32 q 353 -14 408 -14 m 208 160 q 353 82 274 82 q 426 98 390 82 q 492 154 463 114 q 540 263 522 194 q 557 436 557 331 q 538 605 557 539 q 488 710 518 671 q 426 766 458 749 q 356 783 393 783 q 276 768 313 785 q 208 714 240 751 q 156 611 176 676 q 136 443 136 546 q 156 274 136 347 q 208 160 176 200 m 254 1099 l 467 975 l 435 917 l 199 1001 l 254 1099 z "},"Ó":{"ha":694,"x_min":40,"x_max":654,"o":"m 353 -14 q 224 19 282 -14 q 126 110 167 51 q 63 252 85 169 q 40 435 40 335 q 63 617 40 535 q 128 756 86 699 q 228 844 169 813 q 356 875 286 875 q 469 849 417 875 q 566 769 522 822 q 632 632 610 715 q 654 433 654 549 q 628 223 654 308 q 558 85 601 138 q 462 9 515 32 q 353 -14 408 -14 m 208 160 q 353 82 274 82 q 426 98 390 82 q 492 154 463 114 q 540 263 522 194 q 557 436 557 331 q 538 605 557 539 q 488 710 518 671 q 426 766 458 749 q 356 783 393 783 q 276 768 313 785 q 208 714 240 751 q 156 611 176 676 q 136 443 136 546 q 156 274 136 347 q 208 160 176 200 m 451 1099 l 507 1001 l 272 917 l 240 975 l 451 1099 z "},"Ô":{"ha":694,"x_min":40,"x_max":654,"o":"m 353 -14 q 224 19 282 -14 q 126 110 167 51 q 63 252 85 169 q 40 435 40 335 q 63 617 40 535 q 128 756 86 699 q 228 844 169 813 q 356 875 286 875 q 469 849 417 875 q 566 769 522 822 q 632 632 610 715 q 654 433 654 549 q 628 223 654 308 q 558 85 601 138 q 462 9 515 32 q 353 -14 408 -14 m 208 160 q 353 82 274 82 q 426 98 390 82 q 492 154 463 114 q 540 263 522 194 q 557 436 557 331 q 538 605 557 539 q 488 710 518 671 q 426 766 458 749 q 356 783 393 783 q 276 768 313 785 q 208 714 240 751 q 156 611 176 676 q 136 443 136 546 q 156 274 136 347 q 208 160 176 200 m 158 961 l 340 1099 l 371 1099 l 542 963 l 496 910 l 353 1008 l 197 914 l 158 961 z "},"Õ":{"ha":694,"x_min":40,"x_max":654,"o":"m 353 -14 q 224 19 282 -14 q 126 110 167 51 q 63 252 85 169 q 40 435 40 335 q 63 617 40 535 q 128 756 86 699 q 228 844 169 813 q 356 875 286 875 q 469 849 417 875 q 566 769 522 822 q 632 632 610 715 q 654 433 654 549 q 628 223 654 308 q 558 85 601 138 q 462 9 515 32 q 353 -14 408 -14 m 208 160 q 353 82 274 82 q 426 98 390 82 q 492 154 463 114 q 540 263 522 194 q 557 436 557 331 q 538 605 557 539 q 488 710 518 671 q 426 766 458 749 q 356 783 393 783 q 276 768 313 785 q 208 714 240 751 q 156 611 176 676 q 136 443 136 546 q 156 274 136 347 q 208 160 176 200 m 189 949 l 126 993 q 283 1114 203 1114 q 335 1098 308 1114 q 387 1062 363 1082 q 430 1026 411 1042 q 458 1010 449 1010 q 506 1031 490 1010 q 544 1083 522 1053 l 597 1028 q 525 953 556 978 q 463 929 494 929 q 406 946 431 929 q 359 982 381 963 q 319 1018 338 1001 q 285 1035 301 1035 q 236 1016 254 1035 q 189 949 218 997 z "},"Ö":{"ha":694,"x_min":40,"x_max":654,"o":"m 353 -14 q 224 19 282 -14 q 126 110 167 51 q 63 252 85 169 q 40 435 40 335 q 63 617 40 535 q 128 756 86 699 q 228 844 169 813 q 356 875 286 875 q 469 849 417 875 q 566 769 522 822 q 632 632 610 715 q 654 433 654 549 q 628 223 654 308 q 558 85 601 138 q 462 9 515 32 q 353 -14 408 -14 m 208 160 q 353 82 274 82 q 426 98 390 82 q 492 154 463 114 q 540 263 522 194 q 557 436 557 331 q 538 605 557 539 q 488 710 518 671 q 426 766 458 749 q 356 783 393 783 q 276 768 313 785 q 208 714 240 751 q 156 611 176 676 q 136 443 136 546 q 156 274 136 347 q 208 160 176 200 m 268 1075 q 289 1025 289 1054 q 268 976 289 997 q 218 956 247 956 q 169 976 190 956 q 149 1025 149 997 q 169 1074 149 1053 q 218 1096 190 1096 q 268 1075 247 1096 m 515 1075 q 536 1025 536 1054 q 515 976 536 997 q 465 956 494 956 q 417 976 438 956 q 397 1025 397 996 q 417 1075 397 1054 q 465 1096 438 1096 q 515 1075 494 1096 z "},"×":{"ha":694,"x_min":118,"x_max":597,"o":"m 531 699 l 597 638 l 417 451 l 593 265 l 529 201 l 353 386 l 179 207 l 118 268 l 293 450 l 118 635 l 183 699 l 356 517 l 531 699 z "},"Ø":{"ha":694,"x_min":40,"x_max":654,"o":"m 208 713 q 156 608 176 676 q 136 447 136 539 q 183 201 136 294 l 467 733 q 350 783 414 783 q 278 766 314 783 q 208 713 242 749 m 574 757 q 654 431 654 647 q 628 218 654 303 q 558 81 601 133 q 461 8 515 29 q 353 -14 407 -14 q 272 -1 313 -14 q 192 42 231 13 l 122 -87 l 50 -50 l 132 103 q 40 435 40 221 q 63 615 40 533 q 126 753 85 696 q 224 843 167 811 q 353 875 282 875 q 435 861 394 875 q 513 819 476 847 l 576 940 l 651 900 l 574 757 m 519 656 l 238 128 q 344 82 289 82 q 503 169 449 82 q 557 436 557 256 q 519 656 557 574 z "},"Ù":{"ha":694,"x_min":69,"x_max":631,"o":"m 69 865 l 179 865 q 181 863 181 865 q 174 847 181 857 q 165 821 168 836 l 165 297 q 179 185 165 225 q 218 120 193 146 q 277 82 243 94 q 350 67 311 69 q 423 81 389 69 q 483 119 457 92 q 523 186 508 146 q 538 301 538 226 l 538 865 l 631 865 l 631 303 q 612 160 631 218 q 554 63 593 101 q 464 4 515 24 q 349 -15 413 -15 q 235 4 286 -15 q 147 61 183 24 q 90 153 110 99 q 69 299 69 207 l 69 865 m 253 1099 l 465 975 l 433 917 l 197 1001 l 253 1099 z "},"Ú":{"ha":694,"x_min":69,"x_max":631,"o":"m 69 865 l 179 865 q 181 863 181 865 q 174 847 181 857 q 165 821 168 836 l 165 297 q 179 185 165 225 q 218 120 193 146 q 277 82 243 94 q 350 67 311 69 q 423 81 389 69 q 483 119 457 92 q 523 186 508 146 q 538 301 538 226 l 538 865 l 631 865 l 631 303 q 612 160 631 218 q 554 63 593 101 q 464 4 515 24 q 349 -15 413 -15 q 235 4 286 -15 q 147 61 183 24 q 90 153 110 99 q 69 299 69 207 l 69 865 m 451 1099 l 507 1001 l 272 917 l 240 975 l 451 1099 z "},"Û":{"ha":694,"x_min":69,"x_max":631,"o":"m 69 865 l 179 865 q 181 863 181 865 q 174 847 181 857 q 165 821 168 836 l 165 297 q 179 185 165 225 q 218 120 193 146 q 277 82 243 94 q 350 67 311 69 q 423 81 389 69 q 483 119 457 92 q 523 186 508 146 q 538 301 538 226 l 538 865 l 631 865 l 631 303 q 612 160 631 218 q 554 63 593 101 q 464 4 515 24 q 349 -15 413 -15 q 235 4 286 -15 q 147 61 183 24 q 90 153 110 99 q 69 299 69 207 l 69 865 m 158 961 l 340 1099 l 371 1099 l 542 963 l 496 910 l 353 1008 l 197 914 l 158 961 z "},"Ü":{"ha":694,"x_min":69,"x_max":631,"o":"m 69 865 l 179 865 q 181 863 181 865 q 174 847 181 857 q 165 821 168 836 l 165 297 q 179 185 165 225 q 218 120 193 146 q 277 82 243 94 q 350 67 311 69 q 423 81 389 69 q 483 119 457 92 q 523 186 508 146 q 538 301 538 226 l 538 865 l 631 865 l 631 303 q 612 160 631 218 q 554 63 593 101 q 464 4 515 24 q 349 -15 413 -15 q 235 4 286 -15 q 147 61 183 24 q 90 153 110 99 q 69 299 69 207 l 69 865 m 279 1075 q 300 1025 300 1054 q 279 976 300 997 q 229 956 258 956 q 181 976 201 956 q 160 1025 160 997 q 181 1074 160 1053 q 229 1096 201 1096 q 279 1075 258 1096 m 526 1075 q 547 1025 547 1054 q 526 976 547 997 q 476 956 506 956 q 428 976 449 956 q 408 1025 408 996 q 428 1075 408 1054 q 476 1096 449 1096 q 526 1075 506 1096 z "},"Ý":{"ha":694,"x_min":39,"x_max":657,"o":"m 39 865 l 150 865 l 363 446 l 554 865 l 657 865 l 411 342 l 411 0 l 306 0 l 306 342 l 39 865 m 451 1099 l 507 1001 l 272 917 l 240 975 l 451 1099 z "},"Þ":{"ha":694,"x_min":82,"x_max":633,"o":"m 82 865 l 190 865 q 193 861 193 863 q 188 848 193 857 q 179 826 182 839 l 179 703 l 360 703 q 483 683 432 703 q 566 631 533 664 q 615 553 599 597 q 633 458 631 508 q 615 365 631 408 q 567 289 599 321 q 487 238 536 257 q 367 219 438 219 l 179 219 l 179 0 l 82 0 l 82 865 m 179 611 l 179 304 l 367 304 q 442 316 411 304 q 492 348 472 328 q 522 396 513 368 q 533 456 531 424 q 520 516 531 488 q 489 565 510 544 q 435 599 468 586 q 357 611 403 611 l 179 611 z "},"ß":{"ha":694,"x_min":76,"x_max":644,"o":"m 76 0 l 76 588 q 146 844 76 760 q 332 929 215 929 q 429 909 383 929 q 509 856 475 889 q 563 778 543 822 q 583 685 583 733 q 554 575 583 625 q 474 499 525 525 q 544 463 513 486 q 599 406 576 439 q 633 334 621 374 q 644 251 644 294 q 625 147 644 194 q 571 63 606 99 q 490 6 536 26 q 390 -14 444 -14 q 246 29 310 -14 l 294 107 q 396 74 336 74 q 453 88 425 74 q 504 126 482 103 q 540 178 526 149 q 553 240 553 208 q 537 326 550 288 q 499 392 524 365 q 434 434 474 419 q 339 449 394 449 l 297 449 l 297 528 l 347 528 q 398 538 372 528 q 444 568 424 547 q 476 620 464 589 q 489 696 489 651 q 477 753 489 725 q 444 802 465 781 q 393 836 422 824 q 329 849 364 849 q 263 830 292 849 q 213 777 233 811 q 181 696 192 743 q 171 590 171 649 l 171 0 l 76 0 z "},"à":{"ha":694,"x_min":68,"x_max":604,"o":"m 126 560 q 353 649 211 649 q 537 590 469 649 q 604 393 604 531 l 604 0 l 510 0 l 510 69 q 282 -15 408 -15 q 192 0 232 -15 q 125 40 153 15 q 83 97 97 65 q 68 161 68 129 q 151 313 68 257 q 389 374 233 368 l 508 374 l 508 397 q 469 529 508 492 q 346 567 429 567 q 175 496 243 567 l 126 560 m 513 297 l 489 297 q 452 298 469 297 q 418 299 435 299 q 293 288 342 299 q 217 260 244 278 q 178 219 189 242 q 168 169 168 196 q 207 93 168 125 q 303 61 246 61 q 378 74 344 61 q 436 106 411 88 q 476 145 461 125 q 499 181 492 165 q 513 256 513 208 l 513 297 m 338 971 l 460 767 l 390 725 l 250 913 l 338 971 z "},"á":{"ha":694,"x_min":68,"x_max":604,"o":"m 126 560 q 353 649 211 649 q 537 590 469 649 q 604 393 604 531 l 604 0 l 510 0 l 510 69 q 282 -15 408 -15 q 192 0 232 -15 q 125 40 153 15 q 83 97 97 65 q 68 161 68 129 q 151 313 68 257 q 389 374 233 368 l 508 374 l 508 397 q 469 529 508 492 q 346 567 429 567 q 175 496 243 567 l 126 560 m 513 297 l 489 297 q 452 298 469 297 q 418 299 435 299 q 293 288 342 299 q 217 260 244 278 q 178 219 189 242 q 168 169 168 196 q 207 93 168 125 q 303 61 246 61 q 378 74 344 61 q 436 106 411 88 q 476 145 461 125 q 499 181 492 165 q 513 256 513 208 l 513 297 m 406 971 l 493 913 l 353 725 l 283 767 l 406 971 z "},"â":{"ha":694,"x_min":68,"x_max":604,"o":"m 126 560 q 353 649 211 649 q 537 590 469 649 q 604 393 604 531 l 604 0 l 510 0 l 510 69 q 282 -15 408 -15 q 192 0 232 -15 q 125 40 153 15 q 83 97 97 65 q 68 161 68 129 q 151 313 68 257 q 389 374 233 368 l 508 374 l 508 397 q 469 529 508 492 q 346 567 429 567 q 175 496 243 567 l 126 560 m 513 297 l 489 297 q 452 298 469 297 q 418 299 435 299 q 293 288 342 299 q 217 260 244 278 q 178 219 189 242 q 168 169 168 196 q 207 93 168 125 q 303 61 246 61 q 378 74 344 61 q 436 106 411 88 q 476 145 461 125 q 499 181 492 165 q 513 256 513 208 l 513 297 m 196 757 l 350 951 l 381 951 l 533 756 l 469 707 l 361 850 l 249 708 l 196 757 z "},"ã":{"ha":694,"x_min":68,"x_max":608,"o":"m 126 560 q 353 649 211 649 q 537 590 469 649 q 604 393 604 531 l 604 0 l 510 0 l 510 69 q 282 -15 408 -15 q 192 0 232 -15 q 125 40 153 15 q 83 97 97 65 q 68 161 68 129 q 151 313 68 257 q 389 374 233 368 l 508 374 l 508 397 q 469 529 508 492 q 346 567 429 567 q 175 496 243 567 l 126 560 m 513 297 l 489 297 q 452 298 469 297 q 418 299 435 299 q 293 288 342 299 q 217 260 244 278 q 178 219 189 242 q 168 169 168 196 q 207 93 168 125 q 303 61 246 61 q 378 74 344 61 q 436 106 411 88 q 476 145 461 125 q 499 181 492 165 q 513 256 513 208 l 513 297 m 200 774 l 139 818 q 296 939 214 939 q 349 923 321 939 q 400 887 378 907 q 441 851 422 867 q 469 835 460 835 q 498 840 486 835 q 519 856 510 846 q 536 880 528 867 q 557 908 544 893 l 608 853 q 537 778 567 803 q 475 754 507 754 q 417 771 443 754 q 372 807 392 788 q 333 843 353 826 q 297 860 314 860 q 249 841 267 860 q 200 774 231 822 z "},"ä":{"ha":694,"x_min":68,"x_max":604,"o":"m 126 560 q 353 649 211 649 q 537 590 469 649 q 604 393 604 531 l 604 0 l 510 0 l 510 69 q 282 -15 408 -15 q 192 0 232 -15 q 125 40 153 15 q 83 97 97 65 q 68 161 68 129 q 151 313 68 257 q 389 374 233 368 l 508 374 l 508 397 q 469 529 508 492 q 346 567 429 567 q 175 496 243 567 l 126 560 m 513 297 l 489 297 q 452 298 469 297 q 418 299 435 299 q 293 288 342 299 q 217 260 244 278 q 178 219 189 242 q 168 169 168 196 q 207 93 168 125 q 303 61 246 61 q 378 74 344 61 q 436 106 411 88 q 476 145 461 125 q 499 181 492 165 q 513 256 513 208 l 513 297 m 292 903 q 313 853 313 882 q 292 804 313 825 q 243 783 271 783 q 193 804 214 783 q 172 853 172 825 q 193 902 172 881 q 243 924 214 924 q 292 903 271 924 m 539 903 q 560 853 560 882 q 539 804 560 825 q 490 783 518 783 q 441 803 461 783 q 421 853 421 824 q 441 903 421 882 q 490 924 461 924 q 539 903 518 924 z "},"å":{"ha":694,"x_min":68,"x_max":604,"o":"m 126 560 q 353 649 211 649 q 537 590 469 649 q 604 393 604 531 l 604 0 l 510 0 l 510 69 q 282 -15 408 -15 q 192 0 232 -15 q 125 40 153 15 q 83 97 97 65 q 68 161 68 129 q 151 313 68 257 q 389 374 233 368 l 508 374 l 508 397 q 469 529 508 492 q 346 567 429 567 q 175 496 243 567 l 126 560 m 513 297 l 489 297 q 452 298 469 297 q 418 299 435 299 q 293 288 342 299 q 217 260 244 278 q 178 219 189 242 q 168 169 168 196 q 207 93 168 125 q 303 61 246 61 q 378 74 344 61 q 436 106 411 88 q 476 145 461 125 q 499 181 492 165 q 513 256 513 208 l 513 297 m 446 926 q 483 840 483 889 q 473 793 483 815 q 445 754 463 771 q 404 728 428 738 q 356 718 381 718 q 308 728 331 718 q 267 754 285 738 q 240 793 250 771 q 229 840 229 815 q 240 888 229 865 q 267 926 250 910 q 308 953 285 943 q 356 963 331 963 q 446 926 407 963 m 357 906 q 317 887 333 906 q 300 842 300 868 q 317 797 300 815 q 357 778 333 778 q 398 797 381 778 q 415 842 415 815 q 398 887 415 868 q 357 906 381 906 z "},"æ":{"ha":694,"x_min":14,"x_max":686,"o":"m 43 572 q 204 649 103 649 q 295 626 254 649 q 358 563 336 603 q 422 626 382 603 q 503 649 461 649 q 639 575 597 649 q 681 372 681 501 l 681 319 l 392 310 l 392 243 q 431 114 392 163 q 536 65 469 65 q 638 117 600 65 l 686 58 q 528 -15 625 -15 q 428 10 475 -15 q 354 81 382 36 q 289 10 331 36 q 197 -15 247 -15 q 123 1 157 -15 q 65 44 89 18 q 27 104 40 71 q 14 171 14 138 q 85 324 14 267 q 275 386 156 382 l 307 388 l 307 424 q 276 531 307 492 q 197 571 246 571 q 92 511 135 571 l 43 572 m 307 304 l 276 303 q 192 290 225 300 q 138 262 158 279 q 110 221 118 244 q 103 169 103 197 q 111 133 103 150 q 133 101 119 115 q 165 78 147 86 q 200 69 182 69 q 284 106 260 69 q 308 219 308 143 q 308 235 308 228 q 307 251 307 243 l 307 304 m 392 388 l 600 394 l 600 424 q 574 531 600 492 q 503 571 549 571 q 422 525 453 571 q 392 411 392 479 l 392 388 z "},"ç":{"ha":694,"x_min":78,"x_max":635,"o":"m 454 -151 q 389 -118 454 -118 l 347 -118 l 361 -14 q 248 19 300 -8 q 158 90 196 46 q 99 192 121 133 q 78 321 78 251 q 101 449 78 389 q 167 553 125 508 q 269 622 210 597 q 397 647 328 647 q 534 616 472 647 q 635 529 596 585 l 564 447 q 556 456 557 451 q 556 469 556 461 q 547 490 557 478 q 513 524 538 503 q 383 563 465 563 q 306 546 343 563 q 242 498 269 529 q 197 423 214 467 q 181 325 181 379 q 197 225 181 271 q 243 146 214 179 q 313 94 272 113 q 401 75 353 75 q 567 153 497 75 l 625 85 q 422 -14 543 -3 l 415 -65 l 439 -67 q 533 -143 533 -74 q 494 -214 533 -182 q 372 -246 454 -246 q 218 -194 290 -246 l 253 -136 q 390 -186 313 -186 q 440 -176 426 -186 q 454 -151 454 -165 z "},"è":{"ha":694,"x_min":68,"x_max":618,"o":"m 360 650 q 457 632 410 650 q 540 577 504 614 q 597 483 575 540 q 618 349 618 426 q 617 326 618 338 q 615 303 617 314 l 164 303 q 187 191 167 236 q 238 118 207 146 q 306 78 268 90 q 381 67 343 67 q 544 138 479 67 l 600 83 q 378 -14 519 -14 q 251 8 308 -14 q 153 71 193 29 q 90 174 113 113 q 68 315 68 236 q 91 458 68 396 q 153 563 114 521 q 246 628 193 606 q 360 650 299 650 m 168 381 l 517 381 q 517 391 517 386 q 518 403 518 396 q 505 469 518 438 q 469 523 492 500 q 417 560 447 546 q 353 574 388 574 q 235 527 288 574 q 168 381 182 481 m 338 971 l 460 767 l 390 725 l 250 913 l 338 971 z "},"é":{"ha":694,"x_min":68,"x_max":618,"o":"m 360 650 q 457 632 410 650 q 540 577 504 614 q 597 483 575 540 q 618 349 618 426 q 617 326 618 338 q 615 303 617 314 l 164 303 q 187 191 167 236 q 238 118 207 146 q 306 78 268 90 q 381 67 343 67 q 544 138 479 67 l 600 83 q 378 -14 519 -14 q 251 8 308 -14 q 153 71 193 29 q 90 174 113 113 q 68 315 68 236 q 91 458 68 396 q 153 563 114 521 q 246 628 193 606 q 360 650 299 650 m 168 381 l 517 381 q 517 391 517 386 q 518 403 518 396 q 505 469 518 438 q 469 523 492 500 q 417 560 447 546 q 353 574 388 574 q 235 527 288 574 q 168 381 182 481 m 406 971 l 493 913 l 353 725 l 283 767 l 406 971 z "},"ê":{"ha":694,"x_min":68,"x_max":618,"o":"m 360 650 q 457 632 410 650 q 540 577 504 614 q 597 483 575 540 q 618 349 618 426 q 617 326 618 338 q 615 303 617 314 l 164 303 q 187 191 167 236 q 238 118 207 146 q 306 78 268 90 q 381 67 343 67 q 544 138 479 67 l 600 83 q 378 -14 519 -14 q 251 8 308 -14 q 153 71 193 29 q 90 174 113 113 q 68 315 68 236 q 91 458 68 396 q 153 563 114 521 q 246 628 193 606 q 360 650 299 650 m 168 381 l 517 381 q 517 391 517 386 q 518 403 518 396 q 505 469 518 438 q 469 523 492 500 q 417 560 447 546 q 353 574 388 574 q 235 527 288 574 q 168 381 182 481 m 186 757 l 340 951 l 371 951 l 524 756 l 460 707 l 351 850 l 239 708 l 186 757 z "},"ë":{"ha":694,"x_min":68,"x_max":618,"o":"m 360 650 q 457 632 410 650 q 540 577 504 614 q 597 483 575 540 q 618 349 618 426 q 617 326 618 338 q 615 303 617 314 l 164 303 q 187 191 167 236 q 238 118 207 146 q 306 78 268 90 q 381 67 343 67 q 544 138 479 67 l 600 83 q 378 -14 519 -14 q 251 8 308 -14 q 153 71 193 29 q 90 174 113 113 q 68 315 68 236 q 91 458 68 396 q 153 563 114 521 q 246 628 193 606 q 360 650 299 650 m 168 381 l 517 381 q 517 391 517 386 q 518 403 518 396 q 505 469 518 438 q 469 523 492 500 q 417 560 447 546 q 353 574 388 574 q 235 527 288 574 q 168 381 182 481 m 276 903 q 297 853 297 882 q 276 804 297 825 q 228 783 256 783 q 178 804 199 783 q 157 853 157 825 q 178 902 157 881 q 228 924 199 924 q 276 903 256 924 m 524 903 q 544 853 544 882 q 524 804 544 825 q 475 783 503 783 q 426 803 446 783 q 406 853 406 824 q 426 903 406 882 q 475 924 446 924 q 524 903 503 924 z "},"ì":{"ha":694,"x_min":139,"x_max":550,"o":"m 147 635 l 401 635 l 401 81 l 550 81 l 550 0 l 139 0 l 139 81 l 301 81 l 301 554 l 147 554 l 147 635 m 268 971 l 390 767 l 321 725 l 181 913 l 268 971 z "},"í":{"ha":694,"x_min":139,"x_max":550,"o":"m 147 635 l 401 635 l 401 81 l 550 81 l 550 0 l 139 0 l 139 81 l 301 81 l 301 554 l 147 554 l 147 635 m 394 971 l 482 913 l 342 725 l 272 767 l 394 971 z "},"î":{"ha":694,"x_min":139,"x_max":550,"o":"m 147 635 l 401 635 l 401 81 l 550 81 l 550 0 l 139 0 l 139 81 l 301 81 l 301 554 l 147 554 l 147 635 m 158 757 l 313 951 l 343 951 l 496 756 l 432 707 l 324 850 l 211 708 l 158 757 z "},"ï":{"ha":694,"x_min":139,"x_max":550,"o":"m 147 635 l 401 635 l 401 81 l 550 81 l 550 0 l 139 0 l 139 81 l 301 81 l 301 554 l 147 554 l 147 635 m 264 903 q 285 853 285 882 q 264 804 285 825 q 215 783 243 783 q 165 804 186 783 q 144 853 144 825 q 165 902 144 881 q 215 924 186 924 q 264 903 243 924 m 511 903 q 532 853 532 882 q 511 804 532 825 q 463 783 490 783 q 413 803 433 783 q 393 853 393 824 q 413 903 393 882 q 463 924 433 924 q 511 903 490 924 z "},"ð":{"ha":694,"x_min":56,"x_max":639,"o":"m 356 69 q 423 84 390 69 q 481 130 456 99 q 522 208 507 161 q 538 322 538 256 q 521 435 538 389 q 477 510 504 482 q 417 551 450 539 q 351 564 385 564 q 284 549 318 564 q 223 503 250 533 q 179 427 196 472 q 163 322 163 382 q 178 219 163 265 q 219 139 193 172 q 280 88 244 106 q 356 69 315 69 m 482 792 q 639 351 639 614 q 620 200 639 268 q 566 84 601 132 q 477 10 531 36 q 356 -17 424 -17 q 240 8 294 -17 q 145 76 186 32 q 80 179 104 119 q 56 310 56 239 q 79 441 56 379 q 142 549 103 503 q 233 622 182 594 q 336 649 283 649 q 513 576 444 649 q 461 677 490 629 q 393 767 432 725 l 215 717 l 190 783 l 335 822 q 193 911 272 875 l 306 933 q 426 847 368 899 l 576 888 l 600 826 l 482 792 z "},"ñ":{"ha":694,"x_min":94,"x_max":600,"o":"m 94 0 l 94 635 l 197 635 l 197 522 q 290 615 233 581 q 404 650 346 650 q 482 635 446 650 q 544 589 518 621 q 585 507 571 557 q 600 385 600 457 l 600 0 l 501 0 l 501 382 q 467 522 501 482 q 385 563 433 563 q 319 549 353 563 q 259 509 286 535 q 215 447 232 483 q 197 365 197 411 l 197 0 l 94 0 m 182 774 l 121 818 q 278 939 196 939 q 331 923 303 939 q 382 887 360 907 q 423 851 404 867 q 451 835 442 835 q 480 840 468 835 q 501 856 492 846 q 518 880 510 867 q 539 908 526 893 l 590 853 q 519 778 549 803 q 457 754 489 754 q 399 771 425 754 q 354 807 374 788 q 315 843 335 826 q 279 860 296 860 q 231 841 249 860 q 182 774 213 822 z "},"ò":{"ha":694,"x_min":56,"x_max":639,"o":"m 353 649 q 463 626 411 649 q 554 560 515 603 q 616 455 593 517 q 639 317 639 393 q 617 178 639 239 q 556 73 594 117 q 464 6 517 29 q 351 -17 411 -17 q 237 8 290 -17 q 143 77 183 33 q 79 182 103 121 q 56 314 56 243 q 80 447 56 385 q 145 553 104 510 q 240 623 186 597 q 353 649 294 649 m 539 314 q 523 420 539 374 q 481 499 507 467 q 420 547 454 531 q 349 564 386 564 q 277 547 311 564 q 217 499 243 531 q 176 422 192 467 q 161 319 161 376 q 176 218 161 264 q 217 139 192 172 q 278 88 243 106 q 351 69 313 69 q 424 85 390 69 q 484 133 458 101 q 524 210 510 164 q 539 314 539 256 m 338 971 l 460 767 l 390 725 l 250 913 l 338 971 z "},"ó":{"ha":694,"x_min":56,"x_max":639,"o":"m 353 649 q 463 626 411 649 q 554 560 515 603 q 616 455 593 517 q 639 317 639 393 q 617 178 639 239 q 556 73 594 117 q 464 6 517 29 q 351 -17 411 -17 q 237 8 290 -17 q 143 77 183 33 q 79 182 103 121 q 56 314 56 243 q 80 447 56 385 q 145 553 104 510 q 240 623 186 597 q 353 649 294 649 m 539 314 q 523 420 539 374 q 481 499 507 467 q 420 547 454 531 q 349 564 386 564 q 277 547 311 564 q 217 499 243 531 q 176 422 192 467 q 161 319 161 376 q 176 218 161 264 q 217 139 192 172 q 278 88 243 106 q 351 69 313 69 q 424 85 390 69 q 484 133 458 101 q 524 210 510 164 q 539 314 539 256 m 406 971 l 493 913 l 353 725 l 283 767 l 406 971 z "},"ô":{"ha":694,"x_min":56,"x_max":639,"o":"m 353 649 q 463 626 411 649 q 554 560 515 603 q 616 455 593 517 q 639 317 639 393 q 617 178 639 239 q 556 73 594 117 q 464 6 517 29 q 351 -17 411 -17 q 237 8 290 -17 q 143 77 183 33 q 79 182 103 121 q 56 314 56 243 q 80 447 56 385 q 145 553 104 510 q 240 623 186 597 q 353 649 294 649 m 539 314 q 523 420 539 374 q 481 499 507 467 q 420 547 454 531 q 349 564 386 564 q 277 547 311 564 q 217 499 243 531 q 176 422 192 467 q 161 319 161 376 q 176 218 161 264 q 217 139 192 172 q 278 88 243 106 q 351 69 313 69 q 424 85 390 69 q 484 133 458 101 q 524 210 510 164 q 539 314 539 256 m 186 757 l 340 951 l 371 951 l 524 756 l 460 707 l 351 850 l 239 708 l 186 757 z "},"õ":{"ha":694,"x_min":56,"x_max":639,"o":"m 353 649 q 463 626 411 649 q 554 560 515 603 q 616 455 593 517 q 639 317 639 393 q 617 178 639 239 q 556 73 594 117 q 464 6 517 29 q 351 -17 411 -17 q 237 8 290 -17 q 143 77 183 33 q 79 182 103 121 q 56 314 56 243 q 80 447 56 385 q 145 553 104 510 q 240 623 186 597 q 353 649 294 649 m 539 314 q 523 420 539 374 q 481 499 507 467 q 420 547 454 531 q 349 564 386 564 q 277 547 311 564 q 217 499 243 531 q 176 422 192 467 q 161 319 161 376 q 176 218 161 264 q 217 139 192 172 q 278 88 243 106 q 351 69 313 69 q 424 85 390 69 q 484 133 458 101 q 524 210 510 164 q 539 314 539 256 m 188 774 l 126 818 q 283 939 201 939 q 337 923 308 939 q 388 887 365 907 q 428 851 410 867 q 457 835 447 835 q 485 840 474 835 q 506 856 497 846 q 524 880 515 867 q 544 908 532 893 l 596 853 q 524 778 554 803 q 463 754 494 754 q 405 771 431 754 q 360 807 379 788 q 321 843 340 826 q 285 860 301 860 q 236 841 254 860 q 188 774 218 822 z "},"ö":{"ha":694,"x_min":56,"x_max":639,"o":"m 353 649 q 463 626 411 649 q 554 560 515 603 q 616 455 593 517 q 639 317 639 393 q 617 178 639 239 q 556 73 594 117 q 464 6 517 29 q 351 -17 411 -17 q 237 8 290 -17 q 143 77 183 33 q 79 182 103 121 q 56 314 56 243 q 80 447 56 385 q 145 553 104 510 q 240 623 186 597 q 353 649 294 649 m 539 314 q 523 420 539 374 q 481 499 507 467 q 420 547 454 531 q 349 564 386 564 q 277 547 311 564 q 217 499 243 531 q 176 422 192 467 q 161 319 161 376 q 176 218 161 264 q 217 139 192 172 q 278 88 243 106 q 351 69 313 69 q 424 85 390 69 q 484 133 458 101 q 524 210 510 164 q 539 314 539 256 m 275 903 q 296 853 296 882 q 275 804 296 825 q 226 783 254 783 q 176 804 197 783 q 156 853 156 825 q 176 902 156 881 q 226 924 197 924 q 275 903 254 924 m 522 903 q 543 853 543 882 q 522 804 543 825 q 474 783 501 783 q 424 803 444 783 q 404 853 404 824 q 424 903 404 882 q 474 924 444 924 q 522 903 501 924 z "},"÷":{"ha":694,"x_min":99,"x_max":599,"o":"m 99 483 l 599 483 l 599 390 l 99 390 l 99 483 m 399 692 q 417 647 417 671 q 399 604 417 622 q 354 586 381 586 q 311 604 329 586 q 293 647 293 622 q 312 692 293 674 q 354 711 331 711 q 399 692 379 711 m 399 264 q 417 219 417 243 q 399 176 417 194 q 356 158 381 158 q 311 176 331 158 q 292 219 292 193 q 312 265 292 247 q 356 283 332 283 q 399 264 379 283 z "},"ø":{"ha":694,"x_min":56,"x_max":639,"o":"m 350 564 q 278 547 313 564 q 218 498 244 529 q 176 423 192 467 q 161 326 161 379 q 208 153 161 221 l 422 546 q 350 564 388 564 m 536 579 q 639 324 639 485 q 617 180 639 243 q 556 73 594 117 q 465 6 517 29 q 354 -17 413 -17 q 225 14 285 -17 l 169 -89 l 97 -51 l 158 61 q 56 307 56 160 q 80 444 56 382 q 145 552 104 507 q 241 623 186 597 q 357 649 296 649 q 465 625 411 649 l 517 721 l 590 681 l 536 579 m 488 492 l 269 93 q 354 69 310 69 q 425 86 392 69 q 484 134 458 103 q 524 210 510 165 q 539 310 539 254 q 488 492 539 424 z "},"ù":{"ha":694,"x_min":86,"x_max":611,"o":"m 88 635 l 188 635 l 188 281 q 199 178 188 219 q 230 113 210 138 q 276 76 250 88 q 332 65 301 65 q 396 82 365 68 q 451 122 426 96 q 489 188 475 147 q 503 285 503 228 l 503 635 l 604 635 l 604 57 q 611 0 604 25 l 506 0 q 503 22 504 10 q 503 49 501 33 l 504 97 q 422 15 474 44 q 307 -15 369 -15 q 219 2 258 -15 q 149 56 181 19 q 102 147 118 92 q 86 281 86 203 l 88 635 m 338 971 l 460 767 l 390 725 l 250 913 l 338 971 z "},"ú":{"ha":694,"x_min":86,"x_max":611,"o":"m 88 635 l 188 635 l 188 281 q 199 178 188 219 q 230 113 210 138 q 276 76 250 88 q 332 65 301 65 q 396 82 365 68 q 451 122 426 96 q 489 188 475 147 q 503 285 503 228 l 503 635 l 604 635 l 604 57 q 611 0 604 25 l 506 0 q 503 22 504 10 q 503 49 501 33 l 504 97 q 422 15 474 44 q 307 -15 369 -15 q 219 2 258 -15 q 149 56 181 19 q 102 147 118 92 q 86 281 86 203 l 88 635 m 406 971 l 493 913 l 353 725 l 283 767 l 406 971 z "},"û":{"ha":694,"x_min":86,"x_max":611,"o":"m 88 635 l 188 635 l 188 281 q 199 178 188 219 q 230 113 210 138 q 276 76 250 88 q 332 65 301 65 q 396 82 365 68 q 451 122 426 96 q 489 188 475 147 q 503 285 503 228 l 503 635 l 604 635 l 604 57 q 611 0 604 25 l 506 0 q 503 22 504 10 q 503 49 501 33 l 504 97 q 422 15 474 44 q 307 -15 369 -15 q 219 2 258 -15 q 149 56 181 19 q 102 147 118 92 q 86 281 86 203 l 88 635 m 186 757 l 340 951 l 371 951 l 524 756 l 460 707 l 351 850 l 239 708 l 186 757 z "},"ü":{"ha":694,"x_min":86,"x_max":611,"o":"m 88 635 l 188 635 l 188 281 q 199 178 188 219 q 230 113 210 138 q 276 76 250 88 q 332 65 301 65 q 396 82 365 68 q 451 122 426 96 q 489 188 475 147 q 503 285 503 228 l 503 635 l 604 635 l 604 57 q 611 0 604 25 l 506 0 q 503 22 504 10 q 503 49 501 33 l 504 97 q 422 15 474 44 q 307 -15 369 -15 q 219 2 258 -15 q 149 56 181 19 q 102 147 118 92 q 86 281 86 203 l 88 635 m 275 903 q 296 853 296 882 q 275 804 296 825 q 226 783 254 783 q 176 804 197 783 q 156 853 156 825 q 176 902 156 881 q 226 924 197 924 q 275 903 254 924 m 522 903 q 543 853 543 882 q 522 804 543 825 q 474 783 501 783 q 424 803 444 783 q 404 853 404 824 q 424 903 404 882 q 474 924 444 924 q 522 903 501 924 z "},"ý":{"ha":694,"x_min":31,"x_max":643,"o":"m 82 590 l 64 635 l 188 635 q 185 616 188 624 q 182 601 182 608 q 185 593 182 596 l 371 126 l 492 467 q 521 558 510 515 q 539 635 532 600 l 643 635 q 616 553 631 599 q 581 451 601 507 l 408 -3 l 382 -72 q 297 -203 349 -165 q 176 -242 244 -242 q 31 -187 86 -242 l 83 -99 q 90 -112 88 -103 q 94 -124 93 -121 q 100 -130 94 -124 q 115 -142 106 -136 q 138 -154 124 -149 q 168 -160 151 -160 q 240 -135 208 -160 q 301 -44 271 -110 l 321 3 l 82 590 m 406 971 l 493 913 l 353 725 l 283 767 l 406 971 z "},"þ":{"ha":694,"x_min":83,"x_max":643,"o":"m 83 924 l 194 924 q 190 901 194 914 q 185 878 185 889 l 185 538 q 270 619 217 589 q 378 649 324 649 q 478 628 431 649 q 563 568 526 608 q 622 467 600 528 q 643 322 643 406 q 620 175 643 239 q 560 69 597 111 q 474 5 522 26 q 376 -17 426 -17 q 268 10 318 -17 q 186 83 218 36 l 186 -232 l 83 -232 l 83 924 m 185 264 q 232 117 188 161 q 342 72 276 72 q 411 83 376 72 q 474 122 446 94 q 521 193 503 149 q 539 304 539 238 q 488 495 539 426 q 346 564 438 564 q 289 554 318 564 q 237 521 260 544 q 199 458 214 497 q 185 360 185 418 l 185 264 z "},"ÿ":{"ha":694,"x_min":31,"x_max":643,"o":"m 82 590 l 64 635 l 188 635 q 185 616 188 624 q 182 601 182 608 q 185 593 182 596 l 371 126 l 492 467 q 521 558 510 515 q 539 635 532 600 l 643 635 q 616 553 631 599 q 581 451 601 507 l 408 -3 l 382 -72 q 297 -203 349 -165 q 176 -242 244 -242 q 31 -187 86 -242 l 83 -99 q 90 -112 88 -103 q 94 -124 93 -121 q 100 -130 94 -124 q 115 -142 106 -136 q 138 -154 124 -149 q 168 -160 151 -160 q 240 -135 208 -160 q 301 -44 271 -110 l 321 3 l 82 590 m 275 903 q 296 853 296 882 q 275 804 296 825 q 226 783 254 783 q 176 804 197 783 q 156 853 156 825 q 176 902 156 881 q 226 924 197 924 q 275 903 254 924 m 522 903 q 543 853 543 882 q 522 804 543 825 q 474 783 501 783 q 424 803 444 783 q 404 853 404 824 q 424 903 404 882 q 474 924 444 924 q 522 903 501 924 z "},"Ă":{"ha":694,"x_min":21,"x_max":671,"o":"m 21 0 l 326 881 l 338 881 l 671 0 l 571 0 l 475 253 l 200 253 l 117 0 l 21 0 m 453 328 l 331 658 l 219 328 l 453 328 m 178 1089 q 245 1019 204 1047 q 333 992 286 992 q 499 1089 424 992 l 538 1031 q 448 950 501 981 q 336 919 394 919 q 126 1026 217 919 l 178 1089 z "},"ă":{"ha":694,"x_min":68,"x_max":604,"o":"m 126 560 q 353 649 211 649 q 537 590 469 649 q 604 393 604 531 l 604 0 l 510 0 l 510 69 q 282 -15 408 -15 q 192 0 232 -15 q 125 40 153 15 q 83 97 97 65 q 68 161 68 129 q 151 313 68 257 q 389 374 233 368 l 508 374 l 508 397 q 469 529 508 492 q 346 567 429 567 q 175 496 243 567 l 126 560 m 513 297 l 489 297 q 452 298 469 297 q 418 299 435 299 q 293 288 342 299 q 217 260 244 278 q 178 219 189 242 q 168 169 168 196 q 207 93 168 125 q 303 61 246 61 q 378 74 344 61 q 436 106 411 88 q 476 145 461 125 q 499 181 492 165 q 513 256 513 208 l 513 297 m 203 897 q 270 828 229 856 q 360 800 311 800 q 525 897 449 800 l 564 839 q 473 758 526 789 q 361 728 419 728 q 153 835 243 728 l 203 897 z "},"Ą":{"ha":694,"x_min":21,"x_max":675,"o":"m 453 328 l 331 658 l 219 328 l 453 328 m 21 -1 l 326 881 l 338 881 l 672 0 q 556 -142 556 -104 q 567 -169 556 -158 q 594 -181 578 -181 q 675 -149 635 -181 l 675 -212 q 582 -244 636 -244 q 498 -220 526 -244 q 469 -160 469 -196 q 581 0 469 -90 l 571 0 l 475 253 l 200 253 l 117 -1 l 21 -1 z "},"ą":{"ha":694,"x_min":68,"x_max":606,"o":"m 513 297 l 489 297 q 452 298 469 297 q 418 299 435 299 q 293 288 342 299 q 217 260 244 278 q 178 219 189 242 q 168 169 168 196 q 207 93 168 125 q 303 61 246 61 q 378 74 344 61 q 436 106 411 88 q 477 146 461 125 q 499 181 493 167 q 513 256 513 215 l 513 297 m 126 560 q 353 649 211 649 q 537 590 469 649 q 604 393 604 531 l 603 0 q 486 -142 486 -104 q 497 -169 486 -158 q 525 -181 508 -181 q 606 -149 565 -181 l 606 -212 q 513 -244 567 -244 q 428 -220 457 -244 q 400 -160 400 -196 q 511 0 400 -90 l 510 69 q 282 -15 407 -15 q 192 0 232 -15 q 124 40 153 15 q 82 97 96 65 q 68 161 68 129 q 151 312 68 256 q 389 374 233 368 l 508 374 l 508 397 q 469 529 508 492 q 346 567 429 567 q 175 496 243 567 l 126 560 z "},"Ć":{"ha":694,"x_min":57,"x_max":651,"o":"m 553 669 q 549 694 553 686 q 476 767 521 740 q 382 794 432 794 q 293 770 335 794 q 219 699 251 746 q 169 586 188 653 q 151 435 151 519 q 169 285 151 353 q 220 170 188 218 q 297 96 253 122 q 390 69 340 69 q 490 98 442 69 q 567 175 538 126 l 639 128 q 589 67 618 93 q 527 22 560 40 q 462 -5 494 4 q 396 -14 429 -14 q 263 12 321 -14 q 158 92 206 38 q 83 229 110 146 q 57 428 57 313 q 88 641 57 556 q 168 778 118 726 q 274 851 218 829 q 383 872 331 872 q 467 860 426 872 q 544 825 508 847 q 607 772 579 803 q 651 701 635 740 l 558 656 q 553 669 553 660 m 428 1099 l 483 1001 l 249 917 l 217 975 l 428 1099 z "},"ć":{"ha":694,"x_min":78,"x_max":635,"o":"m 635 529 l 564 447 q 558 456 557 451 q 556 469 558 461 q 546 490 554 478 q 513 524 538 503 q 383 563 465 563 q 306 546 343 563 q 242 498 269 529 q 197 423 214 467 q 181 325 181 379 q 197 225 181 271 q 243 146 214 179 q 313 94 272 113 q 401 75 353 75 q 567 153 497 75 l 625 85 q 393 -15 531 -15 q 267 10 325 -15 q 167 79 210 35 q 101 184 125 124 q 78 317 78 244 q 101 449 78 388 q 167 553 125 510 q 269 622 210 597 q 397 647 328 647 q 534 616 472 647 q 635 529 596 585 m 406 971 l 493 913 l 353 725 l 283 767 l 406 971 z "},"Č":{"ha":694,"x_min":57,"x_max":651,"o":"m 553 669 q 549 694 553 686 q 476 767 521 740 q 382 794 432 794 q 293 770 335 794 q 219 699 251 746 q 169 586 188 653 q 151 435 151 519 q 169 285 151 353 q 220 170 188 218 q 297 96 253 122 q 390 69 340 69 q 490 98 442 69 q 567 175 538 126 l 639 128 q 589 67 618 93 q 527 22 560 40 q 462 -5 494 4 q 396 -14 429 -14 q 263 12 321 -14 q 158 92 206 38 q 83 229 110 146 q 57 428 57 313 q 88 641 57 556 q 168 778 118 726 q 274 851 218 829 q 383 872 331 872 q 467 860 426 872 q 544 825 508 847 q 607 772 579 803 q 651 701 635 740 l 558 656 q 553 669 553 660 m 574 1049 l 392 910 l 361 910 l 190 1046 l 236 1099 l 379 1000 l 535 1094 l 574 1049 z "},"č":{"ha":694,"x_min":78,"x_max":635,"o":"m 635 529 l 564 447 q 558 456 557 451 q 556 469 558 461 q 546 490 554 478 q 513 524 538 503 q 383 563 465 563 q 306 546 343 563 q 242 498 269 529 q 197 423 214 467 q 181 325 181 379 q 197 225 181 271 q 243 146 214 179 q 313 94 272 113 q 401 75 353 75 q 567 153 497 75 l 625 85 q 393 -15 531 -15 q 267 10 325 -15 q 167 79 210 35 q 101 184 125 124 q 78 317 78 244 q 101 449 78 388 q 167 553 125 510 q 269 622 210 597 q 397 647 328 647 q 534 616 472 647 q 635 529 596 585 m 524 914 l 369 719 l 339 719 l 186 915 l 250 964 l 358 821 l 471 963 l 524 914 z "},"Ď":{"ha":694,"x_min":75,"x_max":639,"o":"m 75 865 l 276 865 q 449 835 388 865 q 554 747 511 804 q 618 610 597 690 q 639 428 639 529 q 614 249 639 328 q 545 113 589 169 q 432 28 501 57 q 260 -1 363 -1 l 75 -1 l 75 865 m 167 783 l 167 75 l 256 75 q 473 165 404 75 q 542 422 542 254 q 478 688 540 592 q 271 783 417 783 l 167 783 m 517 1049 l 335 910 l 304 910 l 133 1046 l 179 1099 l 322 1000 l 478 1094 l 517 1049 z "},"ď":{"ha":694,"x_min":0,"x_max":707,"o":"m 429 542 l 429 924 l 524 924 l 524 58 q 529 0 524 21 l 431 0 q 425 47 425 17 l 425 101 q 346 18 394 50 q 239 -14 297 -14 q 144 12 188 -14 q 68 82 100 38 q 18 188 36 126 q 0 324 0 250 q 20 458 0 397 q 75 561 40 518 q 156 628 110 604 q 251 651 201 651 q 357 622 310 651 q 429 542 404 592 m 257 569 q 193 551 222 569 q 142 501 164 533 q 109 426 121 469 q 97 333 97 383 q 108 237 97 283 q 141 154 119 190 q 193 96 163 118 q 261 74 224 74 q 313 85 285 74 q 365 122 340 96 q 405 189 389 147 q 421 292 421 231 q 420 363 421 335 q 417 411 419 392 q 410 447 415 431 q 397 482 406 463 q 374 516 389 500 q 339 544 358 532 q 299 563 319 556 q 257 569 278 569 m 707 840 q 589 631 707 750 l 550 664 q 602 727 582 693 q 622 782 622 761 q 613 801 622 792 q 594 820 604 811 q 574 840 583 829 q 565 867 565 851 q 584 913 565 894 q 632 932 603 932 q 684 906 661 932 q 707 840 707 881 z "},"Đ":{"ha":694,"x_min":42,"x_max":647,"o":"m 110 865 l 303 865 q 462 833 397 865 q 567 744 526 801 q 628 605 608 686 q 647 425 647 524 q 633 301 647 363 q 594 185 619 239 q 530 90 568 132 q 443 25 492 47 q 286 -1 389 -1 l 110 -1 l 110 418 l 42 418 l 42 499 l 110 499 l 110 865 m 199 418 l 199 79 l 282 79 q 485 170 415 79 q 554 425 554 261 q 492 688 554 592 q 297 783 431 783 l 199 783 l 199 499 l 344 499 l 344 418 l 199 418 z "},"đ":{"ha":694,"x_min":53,"x_max":661,"o":"m 210 522 q 150 339 150 468 q 199 147 150 219 q 331 74 247 74 q 378 82 357 74 q 419 105 399 90 q 457 140 440 119 q 482 188 474 161 q 497 321 497 238 q 493 409 497 374 q 480 469 489 444 q 457 510 471 494 q 422 539 443 526 q 376 562 397 554 q 335 569 354 569 q 266 558 294 569 q 210 522 238 547 m 600 756 l 600 58 q 607 0 600 25 l 507 0 q 501 47 501 17 l 501 101 q 418 17 471 49 q 311 -14 365 -14 q 212 7 258 -14 q 130 70 165 28 q 74 176 94 113 q 53 324 53 239 q 76 473 53 411 q 138 574 100 535 q 224 633 176 614 q 319 651 271 651 q 434 622 386 651 q 506 542 482 592 l 506 756 l 400 756 l 400 829 l 506 829 l 506 924 l 613 924 q 606 905 613 915 q 600 885 600 894 l 600 829 l 661 829 l 661 756 l 600 756 z "},"Ę":{"ha":694,"x_min":82,"x_max":613,"o":"m 82 867 l 613 867 l 613 781 l 174 781 l 174 496 l 536 496 l 536 407 l 174 407 l 174 86 l 608 86 l 607 0 q 490 -142 490 -104 q 501 -169 490 -158 q 528 -181 513 -181 q 608 -149 569 -181 l 608 -212 q 517 -244 572 -244 q 433 -220 461 -244 q 404 -160 404 -196 q 514 0 404 -89 l 82 0 l 82 867 z "},"ę":{"ha":694,"x_min":68,"x_max":618,"o":"m 360 650 q 457 632 410 650 q 540 577 504 614 q 597 483 575 540 q 618 349 618 426 q 617 326 618 338 q 615 303 617 314 l 164 303 q 187 191 167 236 q 238 118 207 146 q 306 78 268 90 q 381 67 343 67 q 544 138 479 67 l 600 83 l 522 -11 q 488 -56 500 -37 q 471 -86 476 -74 q 465 -108 465 -99 q 464 -128 464 -118 q 477 -161 464 -147 q 517 -175 490 -175 q 549 -169 532 -175 q 589 -150 567 -164 l 588 -218 q 544 -237 567 -232 q 500 -243 522 -243 q 415 -215 449 -243 q 381 -140 381 -187 q 458 -1 381 -75 q 363 -14 410 -14 q 245 8 299 -14 q 152 74 192 31 q 90 178 113 117 q 68 318 68 239 q 90 458 68 396 q 153 562 113 519 q 246 627 193 604 q 360 650 299 650 m 168 381 l 517 381 q 517 391 517 386 q 518 403 518 396 q 505 469 518 438 q 469 523 492 500 q 417 560 447 546 q 353 574 388 574 q 235 527 288 574 q 168 381 182 481 z "},"Ě":{"ha":694,"x_min":82,"x_max":613,"o":"m 82 867 l 613 867 l 613 781 l 174 781 l 174 496 l 536 496 l 536 407 l 174 407 l 174 86 l 608 86 l 608 0 l 82 0 l 82 867 m 551 1049 l 369 910 l 339 910 l 168 1046 l 214 1099 l 357 1000 l 513 1094 l 551 1049 z "},"ě":{"ha":694,"x_min":68,"x_max":618,"o":"m 360 650 q 457 632 410 650 q 540 577 504 614 q 597 483 575 540 q 618 349 618 426 q 617 326 618 338 q 615 303 617 314 l 164 303 q 187 191 167 236 q 238 118 207 146 q 306 78 268 90 q 381 67 343 67 q 544 138 479 67 l 600 83 q 378 -14 519 -14 q 251 8 308 -14 q 153 71 193 29 q 90 174 113 113 q 68 315 68 236 q 91 458 68 396 q 153 563 114 521 q 246 628 193 606 q 360 650 299 650 m 168 381 l 517 381 q 517 391 517 386 q 518 403 518 396 q 505 469 518 438 q 469 523 492 500 q 417 560 447 546 q 353 574 388 574 q 235 527 288 574 q 168 381 182 481 m 524 914 l 369 719 l 339 719 l 186 915 l 250 964 l 358 821 l 471 963 l 524 914 z "},"Ğ":{"ha":694,"x_min":50,"x_max":639,"o":"m 636 729 l 568 660 q 550 686 560 665 q 485 760 529 732 q 383 789 442 789 q 301 772 343 789 q 224 715 258 756 q 167 609 189 675 q 146 443 146 543 q 164 283 146 353 q 214 167 182 214 q 290 97 246 121 q 385 72 333 72 q 549 125 475 72 l 549 331 l 392 331 l 392 415 l 639 415 l 639 76 q 385 -14 515 -14 q 245 17 307 -14 q 140 106 183 49 q 73 243 96 163 q 50 422 50 324 q 84 650 50 558 q 172 790 118 742 q 283 856 226 838 q 385 874 339 874 q 532 834 464 874 q 636 729 600 794 m 204 1097 q 272 1028 231 1056 q 360 1000 313 1000 q 525 1097 450 1000 l 564 1039 q 474 958 528 989 q 363 928 421 928 q 153 1035 243 928 l 204 1097 z "},"ğ":{"ha":694,"x_min":53,"x_max":660,"o":"m 215 535 q 185 489 194 514 q 175 436 175 464 q 186 383 175 408 q 216 338 197 357 q 260 308 235 319 q 314 297 286 297 q 368 308 343 297 q 413 339 393 319 q 443 383 432 358 q 454 436 454 408 q 443 490 454 464 q 413 535 432 515 q 367 565 393 554 q 314 576 342 576 q 215 535 257 576 m 471 594 q 629 651 538 651 l 647 651 l 660 569 q 641 572 650 571 q 622 572 632 572 q 513 542 561 572 q 544 435 544 493 q 526 351 544 390 q 477 281 508 311 q 404 234 446 251 q 315 217 363 217 q 235 232 276 217 q 190 160 190 189 q 217 123 190 136 q 292 110 244 110 q 345 112 318 110 q 396 114 372 114 q 503 102 458 114 q 576 69 549 90 q 618 18 604 47 q 632 -44 632 -11 q 614 -117 632 -82 q 560 -180 596 -153 q 469 -223 524 -207 q 340 -239 414 -239 q 209 -227 264 -239 q 121 -194 154 -215 q 70 -147 88 -174 q 53 -89 53 -119 q 157 51 53 -14 q 106 139 106 78 q 178 258 106 199 q 108 333 133 288 q 83 431 83 379 q 103 519 83 478 q 155 590 122 560 q 230 638 188 621 q 317 656 272 656 q 471 594 410 656 m 224 33 q 144 -64 144 -11 q 160 -110 144 -92 q 203 -141 176 -129 q 267 -158 231 -153 q 344 -164 304 -164 q 485 -133 429 -164 q 540 -51 540 -103 q 509 7 538 -14 q 419 28 481 28 q 406 27 413 28 q 392 26 399 26 q 297 28 339 26 q 224 33 256 31 m 203 897 q 270 828 229 856 q 360 800 311 800 q 525 897 449 800 l 564 839 q 473 758 526 789 q 361 728 419 728 q 153 835 243 728 l 203 897 z "},"İ":{"ha":694,"x_min":113,"x_max":560,"o":"m 122 865 l 551 865 l 551 783 l 381 783 l 381 79 l 560 79 l 560 -1 l 113 -1 l 113 81 l 283 81 l 283 783 l 122 783 l 122 865 m 279 1078 q 329 1099 300 1099 q 380 1078 358 1099 q 401 1028 401 1057 q 380 978 401 999 q 329 957 358 957 q 280 978 301 957 q 258 1028 258 999 q 279 1078 258 1057 z "},"ı":{"ha":694,"x_min":139,"x_max":550,"o":"m 147 635 l 401 635 l 401 81 l 550 81 l 550 0 l 139 0 l 139 81 l 301 81 l 301 554 l 147 554 l 147 635 z "},"ĸ":{"ha":694,"x_min":92,"x_max":665,"o":"m 92 635 l 206 635 q 208 632 208 632 q 202 619 208 628 q 193 599 196 610 l 193 343 l 511 638 q 585 631 543 631 l 621 631 l 354 379 l 665 -1 l 536 -6 l 276 318 l 193 240 l 193 -1 l 92 -1 l 92 635 z "},"Ĺ":{"ha":694,"x_min":92,"x_max":610,"o":"m 92 865 l 206 865 q 199 843 206 856 q 193 818 193 831 l 193 85 l 610 85 l 610 0 l 92 0 l 92 865 m 428 1099 l 483 1001 l 249 917 l 217 975 l 428 1099 z "},"ĺ":{"ha":694,"x_min":110,"x_max":585,"o":"m 118 924 l 399 924 l 399 81 l 585 81 l 585 0 l 110 0 l 110 81 l 297 81 l 297 843 l 118 843 l 118 924 m 428 1158 l 483 1061 l 249 976 l 217 1035 l 428 1158 z "},"Ľ":{"ha":694,"x_min":92,"x_max":610,"o":"m 92 865 l 206 865 q 199 843 206 856 q 193 818 193 831 l 193 85 l 610 85 l 610 0 l 92 0 l 92 865 m 589 781 q 471 571 589 689 l 432 604 q 484 667 464 633 q 504 721 504 701 q 495 742 504 732 q 476 761 486 751 q 456 782 465 771 q 447 807 447 793 q 466 853 447 835 q 514 872 485 872 q 566 847 543 872 q 589 781 589 821 z "},"ľ":{"ha":694,"x_min":86,"x_max":657,"o":"m 94 924 l 375 924 l 375 81 l 561 81 l 561 0 l 86 0 l 86 81 l 274 81 l 274 843 l 94 843 l 94 924 m 657 840 q 539 631 657 750 l 500 664 q 552 727 532 693 q 572 782 572 761 q 563 801 572 792 q 544 820 554 811 q 524 840 533 829 q 515 867 515 851 q 534 913 515 894 q 582 932 553 932 q 634 906 611 932 q 657 840 657 881 z "},"Ł":{"ha":694,"x_min":28,"x_max":619,"o":"m 101 865 l 214 865 q 217 863 217 865 q 211 845 217 857 q 203 818 206 833 l 203 456 l 433 531 q 453 538 444 535 q 468 544 463 542 l 468 456 l 203 371 l 203 83 l 619 83 l 619 -1 l 101 -1 l 101 338 l 28 314 l 28 399 l 101 424 l 101 865 z "},"ł":{"ha":694,"x_min":110,"x_max":585,"o":"m 118 924 l 399 924 l 399 514 l 488 546 q 505 553 496 549 q 525 565 514 558 l 525 464 l 399 421 l 399 81 l 585 81 l 585 0 l 110 0 l 110 81 l 297 81 l 297 388 l 188 350 l 188 442 l 297 479 l 297 843 l 118 843 l 118 924 z "},"Ń":{"ha":694,"x_min":69,"x_max":631,"o":"m 69 0 l 69 865 l 164 865 l 528 224 l 528 867 l 631 867 q 626 849 631 858 q 621 829 621 839 l 621 0 l 544 0 l 163 681 l 163 0 l 69 0 m 428 1099 l 483 1001 l 249 917 l 217 975 l 428 1099 z "},"ń":{"ha":694,"x_min":94,"x_max":600,"o":"m 94 0 l 94 635 l 197 635 l 197 522 q 290 615 233 581 q 404 650 346 650 q 482 635 446 650 q 544 589 518 621 q 585 507 571 557 q 600 385 600 457 l 600 0 l 501 0 l 501 382 q 467 522 501 482 q 385 563 433 563 q 319 549 353 563 q 259 509 286 535 q 215 447 232 483 q 197 365 197 411 l 197 0 l 94 0 m 406 971 l 493 913 l 353 725 l 283 767 l 406 971 z "},"Ň":{"ha":694,"x_min":69,"x_max":631,"o":"m 69 0 l 69 865 l 164 865 l 528 224 l 528 867 l 631 867 q 626 849 631 858 q 621 829 621 839 l 621 0 l 544 0 l 163 681 l 163 0 l 69 0 m 551 1049 l 369 910 l 339 910 l 168 1046 l 214 1099 l 357 1000 l 513 1094 l 551 1049 z "},"ň":{"ha":694,"x_min":94,"x_max":600,"o":"m 94 0 l 94 635 l 197 635 l 197 522 q 290 615 233 581 q 404 650 346 650 q 482 635 446 650 q 544 589 518 621 q 585 507 571 557 q 600 385 600 457 l 600 0 l 501 0 l 501 382 q 467 522 501 482 q 385 563 433 563 q 319 549 353 563 q 259 509 286 535 q 215 447 232 483 q 197 365 197 411 l 197 0 l 94 0 m 524 914 l 369 719 l 339 719 l 186 915 l 250 964 l 358 821 l 471 963 l 524 914 z "},"Ŋ":{"ha":694,"x_min":71,"x_max":624,"o":"m 417 72 q 525 236 525 72 l 525 586 q 485 747 525 701 q 381 793 444 793 q 306 777 343 793 q 238 732 268 761 q 190 663 208 703 q 172 574 172 622 l 172 0 l 71 0 l 71 865 l 172 865 l 172 753 q 269 846 210 811 q 396 881 329 881 q 489 863 447 881 q 560 810 531 846 q 607 720 590 775 q 624 589 624 665 l 624 243 q 567 49 624 113 q 413 -15 510 -15 q 292 19 349 -15 l 340 106 q 349 97 344 103 q 417 72 365 72 z "},"ŋ":{"ha":694,"x_min":94,"x_max":600,"o":"m 94 0 l 94 635 l 197 635 l 197 522 q 290 615 233 581 q 404 650 346 650 q 482 635 446 650 q 544 589 518 621 q 585 507 571 557 q 600 385 600 457 l 600 78 q 533 -168 600 -92 q 364 -244 465 -244 q 294 -233 328 -244 q 229 -197 260 -221 l 276 -104 q 285 -113 282 -106 q 295 -128 288 -121 q 322 -144 303 -136 q 367 -151 340 -151 q 501 63 501 -151 l 501 382 q 467 522 501 482 q 385 563 433 563 q 319 549 353 563 q 258 509 286 535 q 213 447 229 483 q 197 365 197 411 l 197 0 l 94 0 z "},"ō":{"ha":694,"x_min":56,"x_max":639,"o":"m 353 649 q 463 626 411 649 q 554 560 515 603 q 616 455 593 517 q 639 317 639 393 q 617 178 639 239 q 556 73 594 117 q 464 6 517 29 q 351 -17 411 -17 q 237 8 290 -17 q 143 77 183 33 q 79 182 103 121 q 56 314 56 243 q 80 447 56 385 q 145 553 104 510 q 240 623 186 597 q 353 649 294 649 m 539 314 q 523 420 539 374 q 481 499 507 467 q 420 547 454 531 q 349 564 386 564 q 277 547 311 564 q 217 499 243 531 q 176 422 192 467 q 161 319 161 376 q 176 218 161 264 q 217 139 192 172 q 278 88 243 106 q 351 69 313 69 q 424 85 390 69 q 484 133 458 101 q 524 210 510 164 q 539 314 539 256 m 171 863 l 524 863 l 524 785 l 171 785 l 171 863 z "},"Ő":{"ha":694,"x_min":40,"x_max":654,"o":"m 353 -14 q 224 19 282 -14 q 126 110 167 51 q 63 252 85 169 q 40 435 40 335 q 63 617 40 535 q 128 756 86 699 q 228 844 169 813 q 356 875 286 875 q 469 849 417 875 q 566 769 522 822 q 632 632 610 715 q 654 433 654 549 q 628 223 654 308 q 558 85 601 138 q 462 9 515 32 q 353 -14 408 -14 m 208 160 q 353 82 274 82 q 426 98 390 82 q 492 154 463 114 q 540 263 522 194 q 557 436 557 331 q 538 605 557 539 q 488 710 518 671 q 426 766 458 749 q 356 783 393 783 q 276 768 313 785 q 208 714 240 751 q 156 611 176 676 q 136 443 136 546 q 156 274 136 347 q 208 160 176 200 m 571 1125 l 635 1036 l 433 896 l 389 953 l 571 1125 m 324 1125 l 389 1036 l 186 896 l 142 953 l 324 1125 z "},"ő":{"ha":694,"x_min":56,"x_max":639,"o":"m 353 649 q 463 626 411 649 q 554 560 515 603 q 616 455 593 517 q 639 317 639 393 q 617 178 639 239 q 556 73 594 117 q 464 6 517 29 q 351 -17 411 -17 q 237 8 290 -17 q 143 77 183 33 q 79 182 103 121 q 56 314 56 243 q 80 447 56 385 q 145 553 104 510 q 240 623 186 597 q 353 649 294 649 m 539 314 q 523 420 539 374 q 481 499 507 467 q 420 547 454 531 q 349 564 386 564 q 277 547 311 564 q 217 499 243 531 q 176 422 192 467 q 161 319 161 376 q 176 218 161 264 q 217 139 192 172 q 278 88 243 106 q 351 69 313 69 q 424 85 390 69 q 484 133 458 101 q 524 210 510 164 q 539 314 539 256 m 297 971 l 385 913 l 244 725 l 175 767 l 297 971 m 513 971 l 600 913 l 460 725 l 390 767 l 513 971 z "},"Œ":{"ha":694,"x_min":13,"x_max":672,"o":"m 351 826 l 351 867 l 672 867 l 672 781 l 438 781 l 438 496 l 636 496 l 636 407 l 438 407 l 438 86 l 669 86 l 669 0 l 350 0 l 350 43 q 299 3 326 15 q 239 -10 271 -10 q 74 98 135 -10 q 13 433 13 206 q 72 766 13 654 q 240 878 132 878 q 298 866 269 878 q 351 826 326 854 m 238 797 q 186 780 210 797 q 142 721 163 763 q 112 610 122 679 q 101 435 101 540 q 140 169 101 264 q 249 75 178 75 q 313 104 285 75 q 350 179 340 133 l 350 674 q 331 719 342 697 q 307 759 321 742 q 276 787 293 776 q 238 797 258 797 z "},"œ":{"ha":694,"x_min":8,"x_max":686,"o":"m 224 647 q 354 583 307 647 q 494 647 408 647 q 631 583 582 647 q 681 393 681 519 l 681 307 l 364 307 q 374 185 365 232 q 402 113 383 138 q 445 76 421 88 q 504 65 469 65 q 638 118 589 65 l 686 58 q 517 -17 613 -17 q 351 40 421 -17 q 214 -15 290 -15 q 143 -1 179 -15 q 77 51 107 14 q 28 152 47 88 q 8 317 8 217 q 26 472 8 408 q 74 574 43 535 q 143 630 106 613 q 224 647 181 647 m 365 386 l 599 386 l 599 399 q 567 535 599 499 q 476 571 535 571 q 395 526 425 571 q 365 399 365 482 l 365 386 m 224 564 q 176 551 199 564 q 133 511 153 539 q 103 440 114 483 q 92 332 92 396 q 128 134 92 199 q 226 69 164 69 q 275 84 254 69 q 296 124 296 99 q 292 156 296 128 q 281 249 283 204 q 278 331 278 293 q 284 452 278 411 q 290 503 290 493 q 271 547 290 529 q 224 564 251 564 z "},"Ŕ":{"ha":694,"x_min":78,"x_max":644,"o":"m 78 865 l 333 865 q 553 797 486 865 q 621 618 621 729 q 608 544 621 581 q 573 475 596 507 q 517 419 550 443 q 444 386 485 396 l 644 0 l 536 0 l 344 382 l 176 382 l 176 0 l 78 0 l 78 865 m 176 774 l 176 468 l 344 468 q 479 509 438 468 q 521 618 521 550 q 510 679 521 651 q 478 728 499 707 q 425 761 458 749 q 344 774 392 774 l 176 774 m 428 1099 l 483 1001 l 249 917 l 217 975 l 428 1099 z "},"ŕ":{"ha":694,"x_min":138,"x_max":636,"o":"m 138 635 l 242 635 l 239 513 q 331 615 268 579 q 467 650 394 650 q 636 581 569 650 l 590 485 q 563 519 575 506 q 535 543 550 533 q 503 558 521 553 q 461 564 486 564 q 375 542 415 564 q 305 485 335 521 q 257 404 275 450 q 239 308 239 358 l 239 -1 l 138 -1 l 138 635 m 406 971 l 493 913 l 353 725 l 283 767 l 406 971 z "},"Ř":{"ha":694,"x_min":78,"x_max":644,"o":"m 78 865 l 333 865 q 553 797 486 865 q 621 618 621 729 q 608 544 621 581 q 573 475 596 507 q 517 419 550 443 q 444 386 485 396 l 644 0 l 536 0 l 344 382 l 176 382 l 176 0 l 78 0 l 78 865 m 176 774 l 176 468 l 344 468 q 479 509 438 468 q 521 618 521 550 q 510 679 521 651 q 478 728 499 707 q 425 761 458 749 q 344 774 392 774 l 176 774 m 551 1049 l 369 910 l 339 910 l 168 1046 l 214 1099 l 357 1000 l 513 1094 l 551 1049 z "},"ř":{"ha":694,"x_min":138,"x_max":636,"o":"m 138 635 l 242 635 l 239 513 q 331 615 268 579 q 467 650 394 650 q 636 581 569 650 l 590 485 q 563 519 575 506 q 535 543 550 533 q 503 558 521 553 q 461 564 486 564 q 375 542 415 564 q 305 485 335 521 q 257 404 275 450 q 239 308 239 358 l 239 -1 l 138 -1 l 138 635 m 524 914 l 369 719 l 339 719 l 186 915 l 250 964 l 358 821 l 471 963 l 524 914 z "},"Ś":{"ha":694,"x_min":72,"x_max":632,"o":"m 604 763 l 543 679 q 535 691 536 682 q 532 704 535 700 q 460 767 506 743 q 349 790 415 790 q 242 753 285 790 q 200 664 200 715 q 210 611 200 633 q 242 568 221 589 q 306 526 264 547 q 414 478 347 504 q 519 426 478 451 q 586 371 561 400 q 622 309 611 342 q 632 236 632 276 q 615 147 632 192 q 563 66 599 101 q 474 8 528 31 q 343 -14 419 -14 q 72 97 175 -14 l 129 197 q 136 183 136 193 q 140 168 136 174 q 226 101 172 128 q 357 74 281 74 q 428 87 396 74 q 485 122 461 100 q 522 173 508 143 q 536 236 536 203 q 527 284 536 263 q 497 324 518 306 q 438 362 476 343 q 338 406 400 381 q 224 459 269 432 q 151 514 179 486 q 112 574 124 542 q 100 643 100 606 q 120 732 100 690 q 176 805 140 774 q 260 853 211 836 q 364 871 308 871 q 497 842 435 871 q 604 763 560 814 m 428 1099 l 483 1001 l 249 917 l 217 975 l 428 1099 z "},"ś":{"ha":694,"x_min":79,"x_max":611,"o":"m 600 550 l 542 463 q 535 474 535 464 q 532 488 535 483 q 461 547 507 519 q 357 574 415 574 q 306 567 331 574 q 263 550 282 561 q 233 522 244 539 q 222 482 222 504 q 231 452 222 465 q 257 426 239 439 q 308 401 275 414 q 393 374 340 389 q 562 298 513 342 q 611 190 611 254 q 593 111 611 149 q 540 46 575 74 q 457 2 506 18 q 347 -14 408 -14 q 79 86 188 -14 l 136 186 q 142 173 140 182 q 151 151 143 164 q 182 123 160 139 q 250 88 204 107 q 297 74 271 78 q 350 69 324 69 q 406 76 378 69 q 458 97 435 83 q 494 128 481 110 q 508 171 508 147 q 475 232 508 207 q 353 283 442 257 q 272 308 292 301 q 200 342 222 328 q 160 377 178 357 q 131 423 142 397 q 119 479 119 449 q 138 543 119 513 q 188 597 156 574 q 266 635 221 621 q 364 650 311 650 q 600 550 510 650 m 406 971 l 493 913 l 353 725 l 283 767 l 406 971 z "},"Ş":{"ha":694,"x_min":72,"x_max":632,"o":"m 410 -151 q 344 -118 410 -118 l 303 -118 l 317 -14 q 72 97 165 -4 l 129 197 q 136 183 136 193 q 140 168 136 174 q 226 101 172 128 q 357 74 281 74 q 428 87 396 74 q 485 122 461 100 q 522 173 508 143 q 536 236 536 203 q 528 285 536 265 q 499 324 521 306 q 438 361 476 342 q 338 406 400 381 q 224 459 269 432 q 151 514 179 486 q 112 574 124 542 q 100 643 100 606 q 120 732 100 690 q 176 805 140 774 q 260 853 211 836 q 364 871 308 871 q 497 842 435 871 q 604 763 560 814 l 543 679 q 535 691 536 682 q 532 704 535 700 q 460 767 506 743 q 349 790 415 790 q 242 753 285 790 q 200 664 200 715 q 210 610 200 633 q 242 567 219 588 q 306 526 264 547 q 414 478 347 504 q 519 426 478 451 q 586 371 561 400 q 622 309 611 342 q 632 236 632 276 q 617 151 632 193 q 572 74 603 108 q 492 15 540 39 q 378 -14 444 -8 l 372 -65 l 394 -67 q 489 -143 489 -74 q 449 -214 489 -182 q 328 -246 410 -246 q 174 -194 246 -246 l 208 -136 q 346 -186 268 -186 q 396 -176 382 -186 q 410 -151 410 -165 z "},"ş":{"ha":694,"x_min":79,"x_max":611,"o":"m 418 -151 q 353 -118 418 -118 l 311 -118 l 325 -14 q 79 86 179 -8 l 136 186 q 142 173 140 182 q 151 151 143 164 q 182 123 160 139 q 250 88 204 107 q 297 74 271 78 q 350 69 324 69 q 406 76 378 69 q 458 97 435 83 q 494 128 481 110 q 508 171 508 147 q 475 232 508 207 q 353 283 442 257 q 272 308 292 301 q 200 342 222 328 q 160 377 178 357 q 131 423 142 397 q 119 479 119 449 q 138 543 119 513 q 188 597 156 574 q 266 635 221 621 q 364 650 311 650 q 600 550 510 650 l 542 463 q 535 474 535 464 q 532 488 535 483 q 461 547 507 519 q 357 574 415 574 q 306 567 331 574 q 263 550 282 561 q 233 522 244 539 q 222 482 222 504 q 231 452 222 465 q 257 426 239 439 q 308 401 275 414 q 393 374 340 389 q 562 297 513 342 q 611 183 611 253 q 596 115 611 149 q 551 56 581 82 q 481 11 522 29 q 386 -12 439 -7 l 381 -65 l 403 -67 q 497 -143 497 -74 q 458 -214 497 -182 q 336 -246 418 -246 q 182 -194 254 -246 l 217 -136 q 356 -186 276 -186 q 404 -176 390 -186 q 418 -151 418 -165 z "},"Š":{"ha":694,"x_min":72,"x_max":632,"o":"m 604 763 l 543 679 q 535 691 536 682 q 532 704 535 700 q 460 767 506 743 q 349 790 415 790 q 242 753 285 790 q 200 664 200 715 q 210 611 200 633 q 242 568 221 589 q 306 526 264 547 q 414 478 347 504 q 519 426 478 451 q 586 371 561 400 q 622 309 611 342 q 632 236 632 276 q 615 147 632 192 q 563 66 599 101 q 474 8 528 31 q 343 -14 419 -14 q 72 97 175 -14 l 129 197 q 136 183 136 193 q 140 168 136 174 q 226 101 172 128 q 357 74 281 74 q 428 87 396 74 q 485 122 461 100 q 522 173 508 143 q 536 236 536 203 q 527 284 536 263 q 497 324 518 306 q 438 362 476 343 q 338 406 400 381 q 224 459 269 432 q 151 514 179 486 q 112 574 124 542 q 100 643 100 606 q 120 732 100 690 q 176 805 140 774 q 260 853 211 836 q 364 871 308 871 q 497 842 435 871 q 604 763 560 814 m 558 1050 l 376 911 l 346 911 l 175 1047 l 221 1100 l 364 1001 l 519 1096 l 558 1050 z "},"š":{"ha":694,"x_min":79,"x_max":611,"o":"m 600 550 l 542 463 q 535 474 535 464 q 532 488 535 483 q 461 547 507 519 q 357 574 415 574 q 306 567 331 574 q 263 550 282 561 q 233 522 244 539 q 222 482 222 504 q 231 452 222 465 q 257 426 239 439 q 308 401 275 414 q 393 374 340 389 q 562 298 513 342 q 611 190 611 254 q 593 111 611 149 q 540 46 575 74 q 457 2 506 18 q 347 -14 408 -14 q 79 86 188 -14 l 136 186 q 142 173 140 182 q 151 151 143 164 q 182 123 160 139 q 250 88 204 107 q 297 74 271 78 q 350 69 324 69 q 406 76 378 69 q 458 97 435 83 q 494 128 481 110 q 508 171 508 147 q 475 232 508 207 q 353 283 442 257 q 272 308 292 301 q 200 342 222 328 q 160 377 178 357 q 131 423 142 397 q 119 479 119 449 q 138 543 119 513 q 188 597 156 574 q 266 635 221 621 q 364 650 311 650 q 600 550 510 650 m 524 914 l 369 719 l 339 719 l 186 915 l 250 964 l 358 821 l 471 963 l 524 914 z "},"Ţ":{"ha":694,"x_min":43,"x_max":643,"o":"m 401 -151 q 336 -118 401 -118 l 294 -118 l 310 -1 l 289 -1 l 289 779 l 43 779 l 43 867 l 643 867 l 643 779 l 388 779 l 388 -1 l 371 -1 l 363 -65 l 386 -67 q 481 -143 481 -74 q 441 -214 481 -182 q 319 -246 401 -246 q 165 -194 238 -246 l 200 -136 q 338 -186 260 -186 q 388 -176 374 -186 q 401 -151 401 -165 z "},"ţ":{"ha":694,"x_min":97,"x_max":617,"o":"m 478 -151 q 413 -118 478 -118 l 372 -118 l 386 -10 q 313 12 342 -4 q 265 60 283 28 q 240 143 247 93 q 232 268 232 193 q 235 398 232 326 q 246 553 239 469 l 97 553 l 97 635 l 250 635 l 261 804 l 371 822 q 367 800 371 810 q 363 785 364 790 l 346 635 l 554 635 l 554 553 l 346 553 q 333 321 333 429 q 336 208 333 254 q 351 134 339 163 q 385 93 363 106 q 444 81 407 81 q 586 138 508 81 l 617 58 q 446 -10 536 1 l 440 -65 l 463 -67 q 557 -143 557 -74 q 517 -214 557 -182 q 396 -246 478 -246 q 242 -194 314 -246 l 276 -136 q 415 -186 336 -186 q 464 -176 450 -186 q 478 -151 478 -165 z "},"Ť":{"ha":694,"x_min":43,"x_max":643,"o":"m 43 867 l 643 867 l 643 779 l 388 779 l 388 0 l 289 0 l 289 779 l 43 779 l 43 867 m 551 1049 l 369 910 l 339 910 l 168 1046 l 214 1099 l 357 1000 l 513 1094 l 551 1049 z "},"ť":{"ha":694,"x_min":63,"x_max":671,"o":"m 226 804 l 336 822 q 333 800 336 810 q 328 785 329 790 l 311 635 l 519 635 l 519 553 l 311 553 q 299 321 299 429 q 301 208 299 254 q 316 136 304 163 q 350 95 328 110 q 410 81 372 81 q 551 138 474 81 l 582 58 q 385 -12 486 -12 q 239 48 285 -12 q 197 244 193 108 q 200 372 197 294 q 211 553 203 450 l 63 553 l 63 635 l 215 635 l 226 804 m 671 889 q 553 679 671 799 l 514 713 q 566 776 546 742 q 586 831 586 810 q 577 850 586 840 q 558 869 568 860 q 538 889 547 878 q 529 915 529 900 q 548 962 529 943 q 596 981 567 981 q 648 955 625 981 q 671 889 671 929 z "},"Ů":{"ha":694,"x_min":69,"x_max":631,"o":"m 69 865 l 179 865 q 181 863 181 865 q 174 847 181 857 q 165 821 168 836 l 165 297 q 179 185 165 225 q 218 120 193 146 q 277 82 243 94 q 350 67 311 69 q 423 81 389 69 q 483 119 457 92 q 523 186 508 146 q 538 301 538 226 l 538 865 l 631 865 l 631 303 q 612 160 631 218 q 554 63 593 101 q 464 4 515 24 q 349 -15 413 -15 q 235 4 286 -15 q 147 61 183 24 q 90 153 110 99 q 69 299 69 207 l 69 865 m 440 1068 q 478 981 478 1031 q 441 896 478 932 q 351 860 404 860 q 302 869 325 860 q 262 896 279 879 q 234 935 244 913 q 224 982 224 957 q 234 1029 224 1007 q 262 1068 244 1051 q 303 1094 279 1085 q 351 1104 326 1104 q 440 1068 401 1104 m 353 1046 q 312 1028 329 1046 q 294 982 294 1010 q 312 938 294 956 q 353 919 329 919 q 393 938 376 919 q 410 982 410 956 q 393 1028 410 1010 q 353 1046 376 1046 z "},"ů":{"ha":694,"x_min":86,"x_max":611,"o":"m 88 635 l 188 635 l 188 281 q 199 178 188 219 q 230 113 210 138 q 276 76 250 88 q 332 65 301 65 q 396 82 365 68 q 451 122 426 96 q 489 188 475 147 q 503 285 503 228 l 503 635 l 604 635 l 604 57 q 611 0 604 25 l 506 0 q 503 22 504 10 q 503 49 501 33 l 504 97 q 422 15 474 44 q 307 -15 369 -15 q 219 2 258 -15 q 149 56 181 19 q 102 147 118 92 q 86 281 86 203 l 88 635 m 446 926 q 483 840 483 889 q 473 793 483 815 q 445 754 463 771 q 404 728 428 738 q 356 718 381 718 q 308 728 331 718 q 267 754 285 738 q 240 793 250 771 q 229 840 229 815 q 240 888 229 865 q 267 926 250 910 q 308 953 285 943 q 356 963 331 963 q 446 926 407 963 m 357 906 q 317 887 333 906 q 300 842 300 868 q 317 797 300 815 q 357 778 333 778 q 398 797 381 778 q 415 842 415 815 q 398 887 415 868 q 357 906 381 906 z "},"Ű":{"ha":694,"x_min":69,"x_max":635,"o":"m 69 865 l 179 865 q 181 863 181 865 q 174 847 181 857 q 165 821 168 836 l 165 297 q 179 185 165 225 q 218 120 193 146 q 277 82 243 94 q 350 67 311 69 q 423 81 389 69 q 483 119 457 92 q 523 186 508 146 q 538 301 538 226 l 538 865 l 631 865 l 631 303 q 612 160 631 218 q 554 63 593 101 q 464 4 515 24 q 349 -15 413 -15 q 235 4 286 -15 q 147 61 183 24 q 90 153 110 99 q 69 299 69 207 l 69 865 m 571 1125 l 635 1036 l 433 896 l 389 953 l 571 1125 m 324 1125 l 389 1036 l 186 896 l 142 953 l 324 1125 z "},"ű":{"ha":694,"x_min":86,"x_max":611,"o":"m 88 635 l 188 635 l 188 281 q 199 178 188 219 q 230 113 210 138 q 276 76 250 88 q 332 65 301 65 q 396 82 365 68 q 451 122 426 96 q 489 188 475 147 q 503 285 503 228 l 503 635 l 604 635 l 604 57 q 611 0 604 25 l 506 0 q 503 22 504 10 q 503 49 501 33 l 504 97 q 422 15 474 44 q 307 -15 369 -15 q 219 2 258 -15 q 149 56 181 19 q 102 147 118 92 q 86 281 86 203 l 88 635 m 297 971 l 385 913 l 244 725 l 175 767 l 297 971 m 513 971 l 600 913 l 460 725 l 390 767 l 513 971 z "},"Ÿ":{"ha":694,"x_min":39,"x_max":657,"o":"m 39 865 l 150 865 l 363 446 l 554 865 l 657 865 l 411 342 l 411 0 l 306 0 l 306 342 l 39 865 m 269 1075 q 290 1025 290 1054 q 269 976 290 997 q 219 956 249 956 q 171 976 192 956 q 150 1025 150 997 q 171 1074 150 1053 q 219 1096 192 1096 q 269 1075 249 1096 m 517 1075 q 538 1025 538 1054 q 517 976 538 997 q 467 956 496 956 q 419 976 439 956 q 399 1025 399 996 q 419 1075 399 1054 q 467 1096 439 1096 q 517 1075 496 1096 z "},"Ź":{"ha":694,"x_min":69,"x_max":643,"o":"m 86 865 l 621 865 l 621 797 l 192 86 l 600 86 q 622 90 610 86 q 643 94 633 94 l 643 0 l 69 0 l 69 68 l 506 778 l 86 778 l 86 865 m 428 1099 l 483 1001 l 249 917 l 217 975 l 428 1099 z "},"ź":{"ha":694,"x_min":69,"x_max":625,"o":"m 99 635 l 592 635 l 592 567 l 206 86 l 582 86 q 603 90 592 86 q 625 94 615 94 l 625 0 l 69 0 l 69 68 l 463 547 l 99 547 l 99 635 m 406 971 l 493 913 l 353 725 l 283 767 l 406 971 z "},"Ż":{"ha":694,"x_min":69,"x_max":643,"o":"m 86 865 l 621 865 l 621 797 l 192 86 l 600 86 q 622 90 610 86 q 643 94 633 94 l 643 0 l 69 0 l 69 68 l 506 778 l 86 778 l 86 865 m 300 1068 q 350 1089 321 1089 q 401 1068 379 1089 q 422 1018 422 1047 q 401 968 422 989 q 350 947 379 947 q 301 968 322 947 q 279 1018 279 989 q 300 1068 279 1047 z "},"ż":{"ha":694,"x_min":69,"x_max":625,"o":"m 99 635 l 592 635 l 592 567 l 206 86 l 582 86 q 603 90 592 86 q 625 94 615 94 l 625 0 l 69 0 l 69 68 l 463 547 l 99 547 l 99 635 m 303 890 q 353 911 324 911 q 403 890 382 911 q 425 839 425 868 q 403 789 425 810 q 353 768 382 768 q 303 789 324 768 q 282 839 282 810 q 303 890 282 869 z "},"":{"ha":694,"x_min":69,"x_max":643,"o":"m 86 865 l 621 865 l 621 797 l 192 86 l 600 86 q 622 90 610 86 q 643 94 633 94 l 643 0 l 69 0 l 69 68 l 506 778 l 86 778 l 86 865 m 550 1049 l 368 910 l 338 910 l 167 1046 l 213 1099 l 356 1000 l 511 1094 l 550 1049 z "},"":{"ha":694,"x_min":69,"x_max":625,"o":"m 99 635 l 592 635 l 592 567 l 206 86 l 582 86 q 603 90 592 86 q 625 94 615 94 l 625 0 l 69 0 l 69 68 l 463 547 l 99 547 l 99 635 m 524 914 l 369 719 l 339 719 l 186 915 l 250 964 l 358 821 l 471 963 l 524 914 z "},"ƒ":{"ha":694,"x_min":25,"x_max":667,"o":"m 667 861 l 621 769 q 608 783 610 769 q 574 835 603 815 q 513 856 544 856 q 466 847 486 856 q 431 815 446 838 q 405 751 415 792 q 390 646 394 710 l 382 532 l 553 532 l 553 453 l 375 453 l 342 33 q 317 -96 335 -43 q 272 -181 299 -149 q 212 -228 246 -214 q 139 -243 178 -243 q 25 -194 71 -243 l 82 -106 q 91 -114 86 -107 q 102 -129 96 -121 q 121 -144 108 -137 q 151 -150 133 -150 q 216 -103 190 -150 q 249 38 242 -56 l 279 453 l 111 453 l 111 532 l 285 532 l 294 660 q 363 869 306 803 q 511 935 419 935 q 667 861 606 935 z "},"ȷ":{"ha":694,"x_min":67,"x_max":513,"o":"m 175 635 l 513 635 l 513 31 q 493 -92 513 -42 q 440 -175 474 -143 q 360 -223 406 -207 q 261 -242 314 -239 q 67 -153 139 -242 l 132 -67 q 140 -81 139 -74 q 144 -96 140 -87 q 161 -115 149 -104 q 203 -140 174 -125 q 268 -156 233 -156 q 371 -113 331 -156 q 411 25 411 -71 l 411 553 l 175 553 l 175 635 z "},"ˆ":{"ha":694,"x_min":186,"x_max":524,"o":"m 186 757 l 340 951 l 371 951 l 524 756 l 460 707 l 351 850 l 239 708 l 186 757 z "},"ˇ":{"ha":694,"x_min":186,"x_max":524,"o":"m 524 914 l 369 719 l 339 719 l 186 915 l 250 964 l 358 821 l 471 963 l 524 914 z "},"ˉ":{"ha":694,"x_min":171,"x_max":524,"o":"m 171 863 l 524 863 l 524 785 l 171 785 l 171 863 z "},"ˋ":{"ha":694,"x_min":250,"x_max":460,"o":"m 338 971 l 460 767 l 390 725 l 250 913 l 338 971 z "},"˘":{"ha":694,"x_min":140,"x_max":551,"o":"m 190 897 q 258 828 217 856 q 347 800 299 800 q 513 897 436 800 l 551 839 q 460 758 514 789 q 349 728 407 728 q 140 835 231 728 l 190 897 z "},"˙":{"ha":694,"x_min":282,"x_max":425,"o":"m 303 890 q 353 911 324 911 q 403 890 382 911 q 425 839 425 868 q 403 789 425 810 q 353 768 382 768 q 303 789 324 768 q 282 839 282 810 q 303 890 282 869 z "},"˚":{"ha":694,"x_min":229,"x_max":483,"o":"m 446 926 q 483 840 483 889 q 473 793 483 815 q 445 754 463 771 q 404 728 428 738 q 356 718 381 718 q 308 728 331 718 q 267 754 285 738 q 240 793 250 771 q 229 840 229 815 q 240 888 229 865 q 267 926 250 910 q 308 953 285 943 q 356 963 331 963 q 446 926 407 963 m 357 906 q 317 887 333 906 q 300 842 300 868 q 317 797 300 815 q 357 778 333 778 q 398 797 381 778 q 415 842 415 815 q 398 887 415 868 q 357 906 381 906 z "},"˛":{"ha":694,"x_min":383,"x_max":589,"o":"m 494 0 l 586 0 q 469 -142 469 -104 q 481 -169 469 -158 q 508 -181 492 -181 q 589 -149 549 -181 l 589 -212 q 496 -244 550 -244 q 412 -220 440 -244 q 383 -160 383 -196 q 494 0 383 -90 z "},"˜":{"ha":694,"x_min":126,"x_max":596,"o":"m 188 774 l 126 818 q 283 939 201 939 q 337 923 308 939 q 388 887 365 907 q 428 851 410 867 q 457 835 447 835 q 485 840 474 835 q 506 856 497 846 q 524 880 515 867 q 544 908 532 893 l 596 853 q 524 778 554 803 q 463 754 494 754 q 405 771 431 754 q 360 807 379 788 q 321 843 340 826 q 285 860 301 860 q 236 841 254 860 q 188 774 218 822 z "},"˝":{"ha":694,"x_min":175,"x_max":600,"o":"m 297 971 l 385 913 l 244 725 l 175 767 l 297 971 m 513 971 l 600 913 l 460 725 l 390 767 l 513 971 z "},"‘":{"ha":694,"x_min":253,"x_max":449,"o":"m 253 625 q 400 886 253 738 l 449 843 q 384 766 410 808 q 358 697 358 724 q 369 672 358 683 q 394 649 381 660 q 418 623 407 638 q 429 590 429 608 q 406 533 429 557 q 347 510 383 510 q 282 542 311 510 q 253 625 253 574 z "},"’":{"ha":694,"x_min":229,"x_max":425,"o":"m 425 771 q 276 510 425 661 l 229 551 q 294 629 268 588 q 319 697 319 671 q 308 724 319 711 q 283 747 297 736 q 259 772 269 758 q 249 804 249 786 q 272 863 249 839 q 331 886 294 886 q 396 854 367 886 q 425 771 425 822 z "},"‚":{"ha":694,"x_min":229,"x_max":425,"o":"m 425 28 q 276 -233 425 -82 l 229 -192 q 294 -114 268 -156 q 319 -46 319 -72 q 308 -20 319 -32 q 284 3 297 -8 q 260 28 271 14 q 249 61 249 43 q 272 119 249 96 q 331 143 294 143 q 396 111 367 143 q 425 28 425 79 z "},"“":{"ha":694,"x_min":110,"x_max":592,"o":"m 397 625 q 544 886 397 738 l 592 843 q 527 766 553 808 q 501 697 501 724 q 513 672 501 683 q 538 649 524 661 q 563 623 553 638 q 574 590 574 608 q 550 533 574 557 q 490 510 526 510 q 426 542 454 510 q 397 625 397 574 m 110 625 q 257 886 110 738 l 304 843 q 240 766 265 808 q 214 697 214 724 q 225 672 214 683 q 251 649 236 661 q 276 623 265 638 q 286 590 286 608 q 263 533 286 557 q 203 510 239 510 q 138 542 167 510 q 110 625 110 574 z "},"”":{"ha":694,"x_min":85,"x_max":568,"o":"m 281 771 q 133 510 281 658 l 85 551 q 150 629 125 588 q 175 697 175 671 q 163 724 175 711 q 139 748 151 736 q 115 773 126 760 q 104 804 104 786 q 127 863 104 839 q 186 886 150 886 q 252 854 224 886 q 281 771 281 822 m 568 771 q 421 510 568 658 l 372 551 q 438 629 413 588 q 463 697 463 671 q 452 724 463 711 q 428 748 442 736 q 403 773 414 760 q 392 804 392 786 q 415 863 392 839 q 474 886 438 886 q 540 854 511 886 q 568 771 568 822 z "},"„":{"ha":694,"x_min":85,"x_max":568,"o":"m 568 28 q 421 -233 568 -85 l 372 -192 q 438 -114 413 -156 q 463 -46 463 -72 q 451 -20 463 -32 q 427 3 440 -8 q 403 28 414 14 q 392 61 392 43 q 415 119 392 96 q 474 143 438 143 q 540 111 511 143 q 568 28 568 79 m 281 28 q 133 -233 281 -85 l 85 -192 q 150 -114 125 -156 q 175 -46 175 -72 q 164 -20 175 -32 q 140 4 153 -8 q 115 30 126 17 q 104 61 104 43 q 127 119 104 96 q 186 143 150 143 q 252 111 224 143 q 281 28 281 79 z "},"†":{"ha":694,"x_min":68,"x_max":625,"o":"m 301 906 l 394 906 l 394 635 l 625 635 l 625 551 l 394 551 l 394 -210 l 301 -210 l 301 551 l 68 551 l 68 635 l 301 635 l 301 906 z "},"‡":{"ha":694,"x_min":68,"x_max":625,"o":"m 301 906 l 394 906 l 394 635 l 625 635 l 625 551 l 394 551 l 394 168 l 625 168 l 625 85 l 394 85 l 394 -210 l 301 -210 l 301 85 l 68 85 l 68 168 l 301 168 l 301 551 l 68 551 l 68 635 l 301 635 l 301 906 z "},"•":{"ha":694,"x_min":238,"x_max":474,"o":"m 439 493 q 474 411 474 458 q 439 330 474 364 q 356 296 404 296 q 272 330 307 296 q 238 411 238 364 q 273 494 238 460 q 356 528 308 528 q 439 493 401 528 z "},"…":{"ha":694,"x_min":10,"x_max":653,"o":"m 629 121 q 653 64 653 94 q 629 8 653 32 q 571 -15 606 -15 q 513 8 536 -15 q 489 64 489 31 q 514 121 489 97 q 571 144 539 144 q 629 121 603 144 m 150 121 q 174 64 174 94 q 150 8 174 32 q 92 -15 126 -15 q 33 8 56 -15 q 10 64 10 32 q 34 120 10 96 q 92 144 58 144 q 150 121 124 144 m 389 121 q 414 64 414 96 q 390 8 414 32 q 331 -15 365 -15 q 272 8 296 -15 q 249 64 249 31 q 274 121 249 97 q 331 144 299 144 q 389 121 363 144 z "},"‹":{"ha":694,"x_min":201,"x_max":476,"o":"m 201 351 l 413 556 l 467 499 l 299 335 l 476 140 l 421 85 l 201 319 l 201 351 z "},"›":{"ha":694,"x_min":201,"x_max":476,"o":"m 476 351 l 476 319 l 257 85 l 201 140 l 379 335 l 211 499 l 265 556 l 476 351 z "},"⁄":{"ha":694,"x_min":106,"x_max":607,"o":"m 106 -22 l 540 924 l 607 886 l 171 -58 l 106 -22 z "},"⁴":{"ha":694,"x_min":142,"x_max":561,"o":"m 419 890 l 474 890 l 474 550 l 561 550 l 561 485 l 474 485 l 474 350 l 394 350 l 394 486 l 142 486 l 142 535 l 419 890 m 396 756 l 232 550 l 396 550 l 396 756 z "},"€":{"ha":694,"x_min":46,"x_max":644,"o":"m 644 797 l 610 703 q 601 720 606 706 q 578 750 596 735 q 530 779 560 765 q 451 793 500 793 q 309 740 374 793 q 221 575 244 688 l 564 575 l 533 494 l 208 494 q 206 451 206 471 q 206 417 206 432 l 206 383 l 492 383 l 460 303 l 214 303 q 299 128 233 188 q 454 68 364 68 q 603 125 539 68 l 643 56 q 449 -15 561 -15 q 333 5 388 -15 q 237 65 279 25 q 165 165 194 106 q 126 303 136 224 l 46 303 l 64 383 l 119 383 q 119 398 119 390 q 118 414 118 406 q 122 494 118 454 l 46 494 l 64 575 l 135 575 q 185 713 151 656 q 263 805 219 769 q 356 856 306 840 q 457 872 407 872 q 644 797 571 872 z "},"™":{"ha":694,"x_min":25,"x_max":671,"o":"m 332 882 l 332 826 l 207 826 l 207 444 l 144 444 l 144 826 l 25 826 l 25 882 l 332 882 m 421 882 l 521 681 l 625 882 l 671 882 l 671 444 l 613 444 l 613 743 l 529 593 l 507 594 l 431 743 l 431 444 l 372 444 l 372 882 l 421 882 z "},"↑":{"ha":694,"x_min":82,"x_max":613,"o":"m 82 561 l 342 889 l 372 889 l 613 558 l 543 513 l 396 711 l 396 -47 l 303 -47 l 303 713 l 142 513 l 82 561 z "},"↓":{"ha":694,"x_min":82,"x_max":613,"o":"m 613 282 l 353 -47 l 322 -47 l 82 285 l 151 331 l 299 131 l 299 889 l 390 889 l 390 131 l 553 331 l 613 282 z "},"−":{"ha":694,"x_min":63,"x_max":633,"o":"m 63 476 l 633 476 l 633 392 l 63 392 l 63 476 z "},"␣":{"ha":694,"x_min":67,"x_max":628,"o":"m 67 97 l 132 97 l 132 -29 l 561 -29 l 561 97 l 628 97 l 628 -92 l 67 -92 l 67 97 z "},"`":{"ha":694,"x_min":193,"x_max":426,"o":"m 228 804 l 193 897 l 265 932 l 301 840 q 341 773 318 797 q 382 731 364 749 q 413 695 400 714 q 426 654 426 676 q 407 615 425 626 q 374 603 389 603 q 346 608 358 603 q 315 630 333 613 q 275 688 296 647 q 228 804 254 729 z "},"ʼ":{"ha":694,"x_min":272,"x_max":429,"o":"m 429 840 q 311 631 429 750 l 272 664 q 324 727 304 693 q 344 782 344 761 q 335 801 344 792 q 316 820 326 811 q 297 840 306 829 q 288 867 288 851 q 306 913 288 894 q 354 932 325 932 q 406 906 383 932 q 429 840 429 881 z "},"":{"ha":694,"x_min":272,"x_max":429,"o":"m 429 781 q 311 571 429 689 l 272 604 q 324 667 304 633 q 344 721 344 701 q 335 742 344 732 q 316 761 326 751 q 297 782 306 771 q 288 807 288 793 q 306 853 288 835 q 354 872 325 872 q 406 847 383 872 q 429 781 429 821 z "}}}
